<svg version="1.1" id="Layer_1" xmlns="http://www.w3.org/2000/svg" xmlns:xlink="http://www.w3.org/1999/xlink" x="0px" y="0px"
	 width="100%" viewBox="0 0 209 222" enable-background="new 0 0 209 222" xml:space="preserve">
<path fill="#FFFFFF" opacity="1.000000" stroke="none" 
	d="
M138.000000,223.000000 
	C92.000000,223.000000 46.500004,223.000000 1.000006,223.000000 
	C1.000004,149.000000 1.000004,75.000015 1.000002,1.000016 
	C70.666656,1.000011 140.333313,1.000011 209.999969,1.000005 
	C209.999985,74.999985 209.999985,148.999969 210.000000,222.999969 
	C186.166672,223.000000 162.333328,223.000000 138.000000,223.000000 
M114.492111,92.401070 
	C121.261963,91.206345 124.766335,88.848152 124.874054,84.223404 
	C125.176559,71.236343 125.180443,58.236877 124.919937,45.249973 
	C124.891640,43.839375 122.368805,42.478825 121.003036,41.095058 
	C119.657104,42.516304 118.028496,43.773102 117.070389,45.419975 
	C116.488098,46.420872 116.931427,48.024113 116.930725,49.356773 
	C116.926186,58.020489 117.065964,66.688934 116.772919,75.342789 
	C116.729362,76.629181 114.653778,77.846771 113.518272,79.096191 
	C112.350807,77.881424 110.245262,76.718735 110.174446,75.443092 
	C109.824036,69.131256 110.016418,62.789547 110.007217,56.458389 
	C110.001900,52.793385 110.374313,49.062557 109.782280,45.493122 
	C109.513931,43.875233 107.368385,41.506374 105.976028,41.436417 
	C104.587242,41.366638 102.737343,43.533333 101.733078,45.125404 
	C101.031975,46.236862 101.332436,48.031822 101.327255,49.521976 
	C101.298317,57.852383 101.281052,66.183121 101.330673,74.513321 
	C101.346123,77.107605 101.065605,79.219681 97.678200,79.101913 
	C94.266396,78.983299 94.811699,76.506500 94.802864,74.423859 
	C94.763298,65.093887 94.857002,55.762554 94.724297,46.434246 
	C94.684029,43.603748 93.540359,40.550694 90.185432,41.300842 
	C88.535385,41.669785 86.366074,44.602474 86.312149,46.430466 
	C85.963493,58.249466 85.998070,70.085968 86.189613,81.912148 
	C86.288445,88.013885 89.054474,90.859070 95.036491,92.138603 
	C95.979347,92.340279 96.875008,92.762611 98.130859,93.201057 
	C97.185974,108.033272 96.247185,122.769859 95.241440,138.557388 
	C91.108521,133.704163 88.075081,129.755280 84.618355,126.220314 
	C82.355042,123.905746 81.619904,122.125244 83.224915,118.936783 
	C86.097969,113.229263 85.036545,108.547401 80.143745,104.746933 
	C77.574402,102.751198 74.408058,101.456451 71.389824,100.119377 
	C63.516117,96.631348 55.586552,93.268059 47.647182,89.931335 
	C46.669178,89.520309 44.733971,89.149902 44.547859,89.485252 
	C43.807446,90.819336 42.974831,92.572586 43.269630,93.933830 
	C45.059029,102.196503 46.470699,110.636673 49.302387,118.554855 
	C53.264214,129.633194 59.535103,132.266190 71.689095,129.646561 
	C72.529976,129.465332 73.897064,129.482407 74.332352,129.993011 
	C83.339157,140.558182 94.992844,149.604614 93.949425,165.813354 
	C93.453857,173.511749 98.158852,177.969147 105.748367,178.009018 
	C113.145195,178.047882 117.799477,173.432999 117.841835,165.915314 
	C117.853065,163.922882 117.460724,161.924133 117.526421,159.937302 
	C117.578941,158.348663 117.569885,156.441803 118.404655,155.246323 
	C124.007378,147.222610 129.708328,139.258072 135.707794,131.530869 
	C136.613586,130.364197 139.446823,129.778564 141.037338,130.212173 
	C149.388962,132.489105 155.360504,130.497864 159.812210,123.031326 
	C165.389114,113.677643 167.234039,103.187325 168.320267,92.565933 
	C168.669327,89.152702 166.699463,88.265526 163.555237,89.882668 
	C159.283646,92.079613 155.041748,94.373337 150.621674,96.232193 
	C145.582108,98.351593 140.224731,99.737259 135.249146,101.981903 
	C127.260506,105.585815 125.145660,111.537308 128.378860,119.581291 
	C128.839157,120.726479 129.526596,122.550285 129.016449,123.193298 
	C125.084137,128.149750 120.882378,132.892426 115.968895,138.630081 
	C115.231873,122.558388 114.555168,107.801849 114.492111,92.401070 
z"/>
<path fill="#52CDA5" opacity="1.000000" stroke="none" 
	d="
M114.185287,92.723190 
	C114.555168,107.801849 115.231873,122.558388 115.968895,138.630081 
	C120.882378,132.892426 125.084137,128.149750 129.016449,123.193298 
	C129.526596,122.550285 128.839157,120.726479 128.378860,119.581291 
	C125.145660,111.537308 127.260506,105.585815 135.249146,101.981903 
	C140.224731,99.737259 145.582108,98.351593 150.621674,96.232193 
	C155.041748,94.373337 159.283646,92.079613 163.555237,89.882668 
	C166.699463,88.265526 168.669327,89.152702 168.320267,92.565933 
	C167.234039,103.187325 165.389114,113.677643 159.812210,123.031326 
	C155.360504,130.497864 149.388962,132.489105 141.037338,130.212173 
	C139.446823,129.778564 136.613586,130.364197 135.707794,131.530869 
	C129.708328,139.258072 124.007378,147.222610 118.404655,155.246323 
	C117.569885,156.441803 117.578941,158.348663 117.526421,159.937302 
	C117.460724,161.924133 117.853065,163.922882 117.841835,165.915314 
	C117.799477,173.432999 113.145195,178.047882 105.748367,178.009018 
	C98.158852,177.969147 93.453857,173.511749 93.949425,165.813354 
	C94.992844,149.604614 83.339157,140.558182 74.332352,129.993011 
	C73.897064,129.482407 72.529976,129.465332 71.689095,129.646561 
	C59.535103,132.266190 53.264214,129.633194 49.302387,118.554855 
	C46.470699,110.636673 45.059029,102.196503 43.269630,93.933830 
	C42.974831,92.572586 43.807446,90.819336 44.547859,89.485252 
	C44.733971,89.149902 46.669178,89.520309 47.647182,89.931335 
	C55.586552,93.268059 63.516117,96.631348 71.389824,100.119377 
	C74.408058,101.456451 77.574402,102.751198 80.143745,104.746933 
	C85.036545,108.547401 86.097969,113.229263 83.224915,118.936783 
	C81.619904,122.125244 82.355042,123.905746 84.618355,126.220314 
	C88.075081,129.755280 91.108521,133.704163 95.241440,138.557388 
	C96.247185,122.769859 97.185974,108.033272 98.130859,93.201057 
	C96.875008,92.762611 95.979347,92.340279 95.036491,92.138603 
	C89.054474,90.859070 86.288445,88.013885 86.189613,81.912148 
	C85.998070,70.085968 85.963493,58.249466 86.312149,46.430466 
	C86.366074,44.602474 88.535385,41.669785 90.185432,41.300842 
	C93.540359,40.550694 94.684029,43.603748 94.724297,46.434246 
	C94.857002,55.762554 94.763298,65.093887 94.802864,74.423859 
	C94.811699,76.506500 94.266396,78.983299 97.678200,79.101913 
	C101.065605,79.219681 101.346123,77.107605 101.330673,74.513321 
	C101.281052,66.183121 101.298317,57.852383 101.327255,49.521976 
	C101.332436,48.031822 101.031975,46.236862 101.733078,45.125404 
	C102.737343,43.533333 104.587242,41.366638 105.976028,41.436417 
	C107.368385,41.506374 109.513931,43.875233 109.782280,45.493122 
	C110.374313,49.062557 110.001900,52.793385 110.007217,56.458389 
	C110.016418,62.789547 109.824036,69.131256 110.174446,75.443092 
	C110.245262,76.718735 112.350807,77.881424 113.518280,79.096191 
	C114.653778,77.846771 116.729362,76.629181 116.772919,75.342789 
	C117.065964,66.688934 116.926186,58.020489 116.930725,49.356773 
	C116.931427,48.024113 116.488098,46.420872 117.070389,45.419975 
	C118.028496,43.773102 119.657104,42.516304 121.003036,41.095062 
	C122.368805,42.478825 124.891640,43.839375 124.919937,45.249973 
	C125.180443,58.236877 125.176559,71.236343 124.874054,84.223404 
	C124.766335,88.848152 121.261963,91.206345 114.185287,92.723190 
z"/>
</svg>