<svg version="1.1" id="Layer_1" xmlns="http://www.w3.org/2000/svg" xmlns:xlink="http://www.w3.org/1999/xlink" x="0px" y="0px"
	 width="100%" viewBox="0 0 815 299" enable-background="new 0 0 815 299" xml:space="preserve">
<path fill="#FFFFFF" opacity="1.000000" stroke="none" 
	d="
M769.000000,300.000000 
	C512.666687,300.000000 256.833344,300.000000 1.000000,300.000000 
	C1.000000,200.333328 1.000000,100.666664 1.000000,1.000000 
	C272.666656,1.000000 544.333313,1.000000 816.000000,1.000000 
	C816.000000,100.666664 816.000000,200.333328 816.000000,300.000000 
	C800.500000,300.000000 785.000000,300.000000 769.000000,300.000000 
M199.245941,183.377533 
	C199.984863,186.486618 201.256317,189.579666 201.350464,192.708145 
	C201.538910,198.970215 204.787674,203.059128 210.327911,202.997665 
	C215.443054,202.940933 218.615784,198.681351 218.786911,192.709152 
	C218.876602,189.578873 219.500381,186.129700 221.000519,183.450226 
	C223.412781,179.141541 226.758148,175.356522 229.695160,171.339920 
	C231.455002,168.933182 233.561417,168.136017 236.591248,169.023193 
	C241.826065,170.556076 246.363815,168.484772 248.211151,163.781494 
	C250.970200,156.757156 252.571152,149.271790 254.509735,141.941528 
	C254.688034,141.267319 253.747238,140.297134 253.169952,139.155624 
	C250.304855,140.735626 247.797028,142.335617 245.111847,143.540314 
	C242.239471,144.828995 239.219101,145.801697 236.229919,146.813675 
	C225.335220,150.502060 223.895325,153.033615 226.727798,163.744446 
	C223.945297,166.944061 221.154602,170.153091 217.437805,174.427078 
	C216.771500,162.905090 216.183456,152.736435 215.604172,142.719162 
	C222.119705,140.568726 223.812317,138.966187 223.894745,134.306793 
	C224.039078,126.147987 224.094254,117.979630 223.807495,109.828621 
	C223.756256,108.372131 221.872635,106.980110 220.835083,105.558304 
	C219.886902,107.054550 218.199844,108.512779 218.120560,110.053734 
	C217.804306,116.200165 218.139664,122.379082 217.865402,128.529541 
	C217.807571,129.826279 216.193832,131.053650 215.297012,132.312973 
	C214.535675,131.083344 213.163300,129.876495 213.116470,128.620239 
	C212.887100,122.466103 213.195786,116.289322 212.880981,110.142746 
	C212.801041,108.582092 211.134491,107.102692 210.196991,105.585945 
	C209.148193,107.145432 207.307816,108.649940 207.194992,110.274437 
	C206.815094,115.744499 207.246368,121.268181 206.941696,126.747681 
	C206.836365,128.641968 205.537582,132.031448 204.695526,132.059250 
	C200.526047,132.196884 202.250397,128.610840 202.146881,126.499619 
	C201.910599,121.681015 202.156769,116.840813 202.037048,112.013596 
	C201.975952,109.549820 203.134430,105.750229 199.189087,105.749008 
	C195.000015,105.747711 196.141571,109.690643 196.087357,112.292999 
	C195.965927,118.120003 196.190292,123.955605 196.011185,129.779633 
	C195.817734,136.069916 196.300705,141.747971 204.509872,142.417435 
	C203.891693,153.162689 203.304459,163.369965 202.651733,174.715820 
	C198.954590,170.384918 196.006378,166.931305 193.105026,163.532593 
	C196.676315,155.144547 194.692963,150.850189 186.293274,147.627991 
	C180.580612,145.436539 175.017349,142.855515 169.388016,140.446991 
	C167.051758,139.447433 165.007858,139.683548 165.714447,142.728333 
	C167.319397,149.644226 168.910370,156.629730 171.404221,163.248901 
	C172.982513,167.437988 176.998291,170.623932 181.744919,169.237915 
	C186.851257,167.746887 189.601028,169.975204 192.222153,173.417892 
	C194.535599,176.456436 196.704056,179.605362 199.245941,183.377533 
M320.047760,168.581650 
	C332.015625,159.274673 330.700653,135.374725 317.332092,127.912476 
	C307.186554,122.249283 294.551147,124.271584 287.608002,133.048981 
	C280.026428,142.633453 280.640442,158.509308 288.924622,167.091736 
	C296.709900,175.157349 309.587982,175.960861 320.047760,168.581650 
M547.445496,143.815063 
	C545.935974,149.200714 544.426453,154.586349 542.557129,161.255585 
	C540.378174,152.850739 538.558838,145.832977 536.785278,138.991882 
	C533.494812,138.991882 530.697327,138.991882 527.669678,138.991882 
	C525.888611,145.993912 524.137573,152.877625 522.386597,159.761337 
	C522.057800,159.688538 521.729065,159.615723 521.400330,159.542923 
	C519.523376,152.694855 517.646362,145.846802 515.812866,139.157196 
	C512.449219,139.157196 509.406219,139.157196 505.974701,139.157196 
	C509.614563,150.597519 513.110291,161.584747 516.548035,172.389709 
	C526.025696,173.251297 526.010803,173.247375 528.236389,164.796127 
	C529.374634,160.474030 530.577209,156.168854 531.750671,151.856033 
	C534.227661,157.849640 535.542175,163.676132 537.274658,169.375549 
	C537.681396,170.713577 539.501465,172.540649 540.669739,172.539490 
	C543.191406,172.537018 547.449036,172.140182 547.956482,170.774841 
	C551.797424,160.440475 554.902893,149.832718 558.502319,138.475815 
	C554.152161,139.952896 548.639526,135.685989 547.445496,143.815063 
M453.319855,168.404800 
	C453.776001,168.294907 454.232117,168.185013 454.688263,168.075119 
	C453.888611,171.249405 453.958099,175.147079 452.070099,177.415558 
	C449.691101,180.273987 445.021881,180.238983 442.721375,177.280228 
	C439.454620,173.078674 435.794708,174.803696 431.520630,175.282776 
	C432.896515,178.034668 434.340027,180.904465 436.661255,182.485916 
	C442.098419,186.190186 448.291473,186.028656 454.402527,184.208374 
	C460.105560,182.509659 463.578583,178.488220 463.746857,172.608124 
	C464.065338,161.478973 463.838928,150.334198 463.838928,138.811081 
	C460.563110,139.798248 456.235596,136.181564 454.517853,141.793472 
	C445.486328,135.200897 435.664429,137.167297 432.117340,146.800293 
	C430.753601,150.503830 430.493073,154.964310 430.972778,158.929535 
	C432.356293,170.365906 442.960999,175.081360 453.319855,168.404800 
M621.578064,172.731598 
	C623.012878,172.642502 624.447693,172.553391 626.091309,172.451324 
	C626.091309,166.864822 626.001770,161.708115 626.132080,156.556946 
	C626.190308,154.254608 626.507324,151.920914 627.030457,149.676895 
	C627.865295,146.096298 630.754883,145.035736 633.915100,145.323639 
	C637.451355,145.645859 639.004761,148.216904 639.038269,151.596710 
	C639.106873,158.522064 639.058838,165.448563 639.058838,172.426727 
	C642.565002,172.426727 645.306946,172.426727 648.075012,172.426727 
	C648.075012,163.683151 648.433777,155.223114 647.947266,146.811966 
	C647.630005,141.325531 644.207458,138.051437 638.775757,138.198166 
	C634.490051,138.313934 630.250854,140.155533 625.903931,141.252609 
	C625.903931,136.876434 625.903931,131.596481 625.903931,126.241959 
	C622.750427,126.241959 619.887512,126.241959 617.026001,126.241959 
	C617.026001,141.854126 617.026001,157.132339 617.026001,172.545975 
	C618.398926,172.615417 619.546936,172.673477 621.578064,172.731598 
M397.876953,166.388626 
	C398.410187,165.066147 398.943420,163.743668 400.046753,161.007278 
	C396.092316,162.197083 393.308136,163.161209 390.458710,163.858597 
	C387.240082,164.646347 383.695557,166.243561 380.797913,165.505478 
	C378.589813,164.943039 377.170013,161.285736 375.399536,159.005280 
	C375.765442,158.594711 376.131348,158.184158 376.497253,157.773590 
	C384.414246,157.773590 392.331207,157.773590 400.229248,157.773590 
	C400.370453,146.331299 395.234680,139.089737 386.551239,138.061600 
	C377.614838,137.003510 370.328705,141.562607 367.598022,149.921051 
	C365.049133,157.722870 368.179871,167.310059 374.665009,171.033707 
	C380.645142,174.467407 392.219482,175.020218 397.876953,166.388626 
M500.976654,145.659805 
	C495.356934,138.055923 487.659027,135.820267 479.581360,139.446106 
	C472.328857,142.701538 468.251251,151.962906 470.264282,160.607697 
	C472.089752,168.446747 479.126862,173.688568 487.562714,173.492889 
	C495.382904,173.311523 500.840027,169.065094 502.291260,160.644775 
	C498.378326,162.337219 495.085785,163.354065 492.224670,165.084244 
	C486.404846,168.603638 480.165283,165.432755 479.622589,157.891571 
	C487.537872,157.891571 495.425018,157.891571 504.278168,157.891571 
	C503.149811,153.541824 502.215576,149.940491 500.976654,145.659805 
M596.296692,173.543488 
	C605.262268,173.228424 611.616455,166.585434 610.858948,159.712463 
	C607.002991,159.851120 603.104309,158.301331 600.617126,163.707336 
	C598.632019,168.022079 590.716797,167.242844 589.348633,162.535080 
	C588.136841,158.365036 588.111084,153.316620 589.273987,149.131805 
	C590.584839,144.414749 597.974365,143.068268 600.202271,146.984375 
	C603.050720,151.991119 606.788879,150.664917 612.144592,150.451202 
	C610.302612,147.159348 609.326782,144.081573 607.305786,142.036697 
	C598.972473,133.604645 582.500488,137.961197 579.124634,149.315521 
	C575.642395,161.027710 581.494629,173.432693 596.296692,173.543488 
M331.650238,140.285461 
	C334.340363,148.128387 337.059601,155.961487 339.713104,163.816788 
	C342.863892,173.144211 342.839355,173.152496 352.974976,172.497238 
	C356.726562,161.594528 360.527405,150.548798 364.478241,139.067062 
	C360.960114,139.067062 358.086639,139.067062 355.142639,139.067062 
	C352.891052,146.263153 350.709229,153.236267 348.084869,161.623779 
	C345.367798,153.080704 343.094238,145.932037 340.702728,138.412567 
	C337.379395,138.836670 334.355286,139.222580 331.650238,140.285461 
M658.771973,168.302048 
	C662.418701,174.625732 668.280334,172.648270 673.828247,172.847702 
	C673.828247,170.175949 673.828247,168.064560 673.828247,165.953171 
	C673.459473,166.265976 673.090698,166.578781 672.721985,166.891602 
	C670.977966,165.270538 667.948792,163.804962 667.730286,161.999329 
	C667.066833,156.515686 667.490051,150.900558 667.490051,145.230942 
	C669.904297,145.055313 671.836060,144.914780 673.833313,144.769485 
	C673.833313,142.720016 673.833313,140.941269 673.833313,139.039917 
	C671.746704,138.846588 669.825256,138.668564 667.574707,138.460052 
	C667.430725,135.187592 667.295471,132.114624 667.159241,129.019363 
	C663.957214,129.019363 661.098145,129.019363 657.982300,129.019363 
	C657.982300,132.348541 657.982300,135.308090 657.982300,138.352051 
	C656.032898,138.682632 654.329468,138.971512 652.802002,139.230545 
	C652.802002,141.352005 652.802002,143.082062 652.802002,144.772125 
	C654.737671,144.971878 656.307129,145.133835 658.514221,145.361603 
	C658.514221,152.953934 658.514221,160.233871 658.771973,168.302048 
M427.852631,141.573212 
	C428.441132,138.196259 426.527679,137.180939 423.862335,138.138519 
	C420.852875,139.219742 418.098907,141.012161 415.066681,142.581802 
	C414.914398,141.621902 414.703430,140.292023 414.497894,138.996368 
	C411.556946,138.996368 408.929626,138.996368 406.293213,138.996368 
	C406.293213,150.256165 406.293213,161.313232 406.293213,172.445465 
	C409.343719,172.445465 412.077972,172.445465 415.203430,172.445465 
	C415.203430,168.199707 415.183289,164.231537 415.207336,160.263626 
	C415.272522,149.493240 416.921204,147.592621 427.635803,146.227585 
	C427.705475,145.014252 427.779114,143.732300 427.852631,141.573212 
M565.793152,172.722275 
	C567.727295,172.722275 569.661377,172.722275 571.765015,172.722275 
	C571.765015,161.104050 571.765015,150.169708 571.765015,139.099976 
	C568.718689,139.099976 565.812012,139.099976 562.651733,139.099976 
	C562.651733,149.529282 562.589050,159.662521 562.751099,169.792160 
	C562.766907,170.778839 564.169434,171.743332 565.793152,172.722275 
M570.914612,133.409622 
	C571.370056,131.030304 571.825439,128.650986 572.297791,126.183350 
	C568.557251,126.183350 565.672058,126.183350 562.924805,126.183350 
	C562.924805,128.737427 562.924805,130.979553 562.924805,133.566147 
	C565.513184,133.566147 567.790405,133.566147 570.914612,133.409622 
z"/>
<path fill="#52CDA5" opacity="1.000000" stroke="none" 
	d="
M199.091232,183.041534 
	C196.704056,179.605362 194.535599,176.456436 192.222153,173.417892 
	C189.601028,169.975204 186.851257,167.746887 181.744919,169.237915 
	C176.998291,170.623932 172.982513,167.437988 171.404221,163.248901 
	C168.910370,156.629730 167.319397,149.644226 165.714447,142.728333 
	C165.007858,139.683548 167.051758,139.447433 169.388016,140.446991 
	C175.017349,142.855515 180.580612,145.436539 186.293274,147.627991 
	C194.692963,150.850189 196.676315,155.144547 193.105026,163.532593 
	C196.006378,166.931305 198.954590,170.384918 202.651733,174.715820 
	C203.304459,163.369965 203.891693,153.162689 204.509872,142.417435 
	C196.300705,141.747971 195.817734,136.069916 196.011185,129.779633 
	C196.190292,123.955605 195.965927,118.120003 196.087357,112.292999 
	C196.141571,109.690643 195.000015,105.747711 199.189087,105.749008 
	C203.134430,105.750229 201.975952,109.549820 202.037048,112.013596 
	C202.156769,116.840813 201.910599,121.681015 202.146881,126.499619 
	C202.250397,128.610840 200.526047,132.196884 204.695526,132.059250 
	C205.537582,132.031448 206.836365,128.641968 206.941696,126.747681 
	C207.246368,121.268181 206.815094,115.744499 207.194992,110.274437 
	C207.307816,108.649940 209.148193,107.145432 210.196991,105.585953 
	C211.134491,107.102692 212.801041,108.582092 212.880981,110.142746 
	C213.195786,116.289322 212.887100,122.466103 213.116470,128.620239 
	C213.163300,129.876495 214.535675,131.083344 215.297012,132.312973 
	C216.193832,131.053650 217.807571,129.826279 217.865402,128.529541 
	C218.139664,122.379082 217.804306,116.200165 218.120560,110.053734 
	C218.199844,108.512779 219.886902,107.054550 220.835083,105.558311 
	C221.872635,106.980110 223.756256,108.372131 223.807495,109.828621 
	C224.094254,117.979630 224.039078,126.147987 223.894745,134.306793 
	C223.812317,138.966187 222.119705,140.568726 215.604172,142.719162 
	C216.183456,152.736435 216.771500,162.905090 217.437805,174.427078 
	C221.154602,170.153091 223.945297,166.944061 226.727798,163.744446 
	C223.895325,153.033615 225.335220,150.502060 236.229919,146.813675 
	C239.219101,145.801697 242.239471,144.828995 245.111847,143.540314 
	C247.797028,142.335617 250.304855,140.735626 253.169952,139.155624 
	C253.747238,140.297134 254.688034,141.267319 254.509735,141.941528 
	C252.571152,149.271790 250.970200,156.757156 248.211151,163.781494 
	C246.363815,168.484772 241.826065,170.556076 236.591248,169.023193 
	C233.561417,168.136017 231.455002,168.933182 229.695160,171.339920 
	C226.758148,175.356522 223.412781,179.141541 221.000519,183.450226 
	C219.500381,186.129700 218.876602,189.578873 218.786911,192.709152 
	C218.615784,198.681351 215.443054,202.940933 210.327911,202.997665 
	C204.787674,203.059128 201.538910,198.970215 201.350464,192.708145 
	C201.256317,189.579666 199.984863,186.486618 199.091232,183.041534 
z"/>
<path fill="#3F444C" opacity="1.000000" stroke="none" 
	d="
M319.750854,168.789124 
	C309.587982,175.960861 296.709900,175.157349 288.924622,167.091736 
	C280.640442,158.509308 280.026428,142.633453 287.608002,133.048981 
	C294.551147,124.271584 307.186554,122.249283 317.332092,127.912476 
	C330.700653,135.374725 332.015625,159.274673 319.750854,168.789124 
M305.451660,164.983261 
	C310.922211,164.981979 315.334229,162.311478 316.332489,157.264832 
	C317.376740,151.985992 317.245880,146.149536 316.148651,140.864044 
	C315.058594,135.613174 310.191986,133.260925 304.609924,133.513519 
	C299.388367,133.749786 295.380829,136.531906 294.056244,141.709335 
	C293.169952,145.173706 292.807648,148.900040 292.963562,152.476334 
	C293.281097,159.758652 297.275879,163.771713 305.451660,164.983261 
z"/>
<path fill="#41454D" opacity="1.000000" stroke="none" 
	d="
M547.572083,143.435898 
	C548.639526,135.685989 554.152161,139.952896 558.502319,138.475815 
	C554.902893,149.832718 551.797424,160.440475 547.956482,170.774841 
	C547.449036,172.140182 543.191406,172.537018 540.669739,172.539490 
	C539.501465,172.540649 537.681396,170.713577 537.274658,169.375549 
	C535.542175,163.676132 534.227661,157.849640 531.750671,151.856033 
	C530.577209,156.168854 529.374634,160.474030 528.236389,164.796127 
	C526.010803,173.247375 526.025696,173.251297 516.548035,172.389709 
	C513.110291,161.584747 509.614563,150.597519 505.974701,139.157196 
	C509.406219,139.157196 512.449219,139.157196 515.812866,139.157196 
	C517.646362,145.846802 519.523376,152.694855 521.400330,159.542923 
	C521.729065,159.615723 522.057800,159.688538 522.386597,159.761337 
	C524.137573,152.877625 525.888611,145.993912 527.669678,138.991882 
	C530.697327,138.991882 533.494812,138.991882 536.785278,138.991882 
	C538.558838,145.832977 540.378174,152.850739 542.557129,161.255585 
	C544.426453,154.586349 545.935974,149.200714 547.572083,143.435898 
z"/>
<path fill="#40454C" opacity="1.000000" stroke="none" 
	d="
M453.042297,168.699371 
	C442.960999,175.081360 432.356293,170.365906 430.972778,158.929535 
	C430.493073,154.964310 430.753601,150.503830 432.117340,146.800293 
	C435.664429,137.167297 445.486328,135.200897 454.517822,141.793289 
	C456.235596,136.181564 460.563110,139.798248 463.838928,138.811081 
	C463.838928,150.334198 464.065338,161.478973 463.746857,172.608124 
	C463.578583,178.488220 460.105560,182.509659 454.402527,184.208374 
	C448.291473,186.028656 442.098419,186.190186 436.661255,182.485916 
	C434.340027,180.904465 432.896515,178.034668 431.520630,175.282776 
	C435.794708,174.803696 439.454620,173.078674 442.721375,177.280228 
	C445.021881,180.238983 449.691101,180.273987 452.070099,177.415558 
	C453.958099,175.147079 453.888611,171.249405 454.688263,168.075119 
	C454.232117,168.185013 453.776001,168.294907 453.042297,168.699371 
M450.706207,163.747742 
	C455.204163,159.685883 456.396118,153.975677 453.795959,148.945511 
	C451.661102,144.815521 446.312042,143.652267 442.783417,146.550644 
	C439.854401,148.956589 438.917847,155.052536 440.682739,159.567535 
	C442.401672,163.964874 445.626526,165.025528 450.706207,163.747742 
z"/>
<path fill="#40454D" opacity="1.000000" stroke="none" 
	d="
M621.136475,172.731567 
	C619.546936,172.673477 618.398926,172.615417 617.026001,172.545975 
	C617.026001,157.132339 617.026001,141.854126 617.026001,126.241959 
	C619.887512,126.241959 622.750427,126.241959 625.903931,126.241959 
	C625.903931,131.596481 625.903931,136.876434 625.903931,141.252609 
	C630.250854,140.155533 634.490051,138.313934 638.775757,138.198166 
	C644.207458,138.051437 647.630005,141.325531 647.947266,146.811966 
	C648.433777,155.223114 648.075012,163.683151 648.075012,172.426727 
	C645.306946,172.426727 642.565002,172.426727 639.058838,172.426727 
	C639.058838,165.448563 639.106873,158.522064 639.038269,151.596710 
	C639.004761,148.216904 637.451355,145.645859 633.915100,145.323639 
	C630.754883,145.035736 627.865295,146.096298 627.030457,149.676895 
	C626.507324,151.920914 626.190308,154.254608 626.132080,156.556946 
	C626.001770,161.708115 626.091309,166.864822 626.091309,172.451324 
	C624.447693,172.553391 623.012878,172.642502 621.136475,172.731567 
z"/>
<path fill="#40454C" opacity="1.000000" stroke="none" 
	d="
M397.696594,166.700867 
	C392.219482,175.020218 380.645142,174.467407 374.665009,171.033707 
	C368.179871,167.310059 365.049133,157.722870 367.598022,149.921051 
	C370.328705,141.562607 377.614838,137.003510 386.551239,138.061600 
	C395.234680,139.089737 400.370453,146.331299 400.229248,157.773590 
	C392.331207,157.773590 384.414246,157.773590 376.497253,157.773590 
	C376.131348,158.184158 375.765442,158.594711 375.399536,159.005280 
	C377.170013,161.285736 378.589813,164.943039 380.797913,165.505478 
	C383.695557,166.243561 387.240082,164.646347 390.458710,163.858597 
	C393.308136,163.161209 396.092316,162.197083 400.046753,161.007278 
	C398.943420,163.743668 398.410187,165.066147 397.696594,166.700867 
M385.132629,145.044571 
	C378.835968,145.153091 377.315552,146.363068 376.647491,151.667404 
	C381.328339,151.667404 386.020081,151.667404 390.711792,151.667404 
	C390.991882,151.281433 391.271973,150.895447 391.552063,150.509476 
	C389.676086,148.715240 387.800079,146.921005 385.132629,145.044571 
z"/>
<path fill="#40454C" opacity="1.000000" stroke="none" 
	d="
M501.128998,145.999481 
	C502.215576,149.940491 503.149811,153.541824 504.278168,157.891571 
	C495.425018,157.891571 487.537872,157.891571 479.622589,157.891571 
	C480.165283,165.432755 486.404846,168.603638 492.224670,165.084244 
	C495.085785,163.354065 498.378326,162.337219 502.291260,160.644775 
	C500.840027,169.065094 495.382904,173.311523 487.562714,173.492889 
	C479.126862,173.688568 472.089752,168.446747 470.264282,160.607697 
	C468.251251,151.962906 472.328857,142.701538 479.581360,139.446106 
	C487.659027,135.820267 495.356934,138.055923 501.128998,145.999481 
M489.284668,152.003754 
	C490.748199,152.003754 492.211700,152.003754 493.862671,152.003754 
	C493.453125,147.376068 491.260437,145.004684 486.876953,144.977936 
	C482.383148,144.950500 479.926056,147.276855 479.218353,152.003754 
	C482.434235,152.003754 485.399017,152.003754 489.284668,152.003754 
z"/>
<path fill="#42464E" opacity="1.000000" stroke="none" 
	d="
M595.887085,173.540375 
	C581.494629,173.432693 575.642395,161.027710 579.124634,149.315521 
	C582.500488,137.961197 598.972473,133.604645 607.305786,142.036697 
	C609.326782,144.081573 610.302612,147.159348 612.144592,150.451202 
	C606.788879,150.664917 603.050720,151.991119 600.202271,146.984375 
	C597.974365,143.068268 590.584839,144.414749 589.273987,149.131805 
	C588.111084,153.316620 588.136841,158.365036 589.348633,162.535080 
	C590.716797,167.242844 598.632019,168.022079 600.617126,163.707336 
	C603.104309,158.301331 607.002991,159.851120 610.858948,159.712463 
	C611.616455,166.585434 605.262268,173.228424 595.887085,173.540375 
z"/>
<path fill="#40454C" opacity="1.000000" stroke="none" 
	d="
M331.490723,139.946991 
	C334.355286,139.222580 337.379395,138.836670 340.702728,138.412567 
	C343.094238,145.932037 345.367798,153.080704 348.084869,161.623779 
	C350.709229,153.236267 352.891052,146.263153 355.142639,139.067062 
	C358.086639,139.067062 360.960114,139.067062 364.478241,139.067062 
	C360.527405,150.548798 356.726562,161.594528 352.974976,172.497238 
	C342.839355,173.152496 342.863892,173.144211 339.713104,163.816788 
	C337.059601,155.961487 334.340363,148.128387 331.490723,139.946991 
z"/>
<path fill="#3E434B" opacity="1.000000" stroke="none" 
	d="
M658.643066,167.907928 
	C658.514221,160.233871 658.514221,152.953934 658.514221,145.361603 
	C656.307129,145.133835 654.737671,144.971878 652.802002,144.772125 
	C652.802002,143.082062 652.802002,141.352005 652.802002,139.230545 
	C654.329468,138.971512 656.032898,138.682632 657.982300,138.352051 
	C657.982300,135.308090 657.982300,132.348541 657.982300,129.019363 
	C661.098145,129.019363 663.957214,129.019363 667.159241,129.019363 
	C667.295471,132.114624 667.430725,135.187592 667.574707,138.460052 
	C669.825256,138.668564 671.746704,138.846588 673.833313,139.039917 
	C673.833313,140.941269 673.833313,142.720016 673.833313,144.769485 
	C671.836060,144.914780 669.904297,145.055313 667.490051,145.230942 
	C667.490051,150.900558 667.066833,156.515686 667.730286,161.999329 
	C667.948792,163.804962 670.977966,165.270538 672.721985,166.891602 
	C673.090698,166.578781 673.459473,166.265976 673.828247,165.953171 
	C673.828247,168.064560 673.828247,170.175949 673.828247,172.847702 
	C668.280334,172.648270 662.418701,174.625732 658.643066,167.907928 
z"/>
<path fill="#3F444C" opacity="1.000000" stroke="none" 
	d="
M427.852661,142.011780 
	C427.779114,143.732300 427.705475,145.014252 427.635803,146.227585 
	C416.921204,147.592621 415.272522,149.493240 415.207336,160.263626 
	C415.183289,164.231537 415.203430,168.199707 415.203430,172.445465 
	C412.077972,172.445465 409.343719,172.445465 406.293213,172.445465 
	C406.293213,161.313232 406.293213,150.256165 406.293213,138.996368 
	C408.929626,138.996368 411.556946,138.996368 414.497894,138.996368 
	C414.703430,140.292023 414.914398,141.621902 415.066681,142.581802 
	C418.098907,141.012161 420.852875,139.219742 423.862335,138.138519 
	C426.527679,137.180939 428.441132,138.196259 427.852661,142.011780 
z"/>
<path fill="#3E434B" opacity="1.000000" stroke="none" 
	d="
M565.360718,172.720200 
	C564.169434,171.743332 562.766907,170.778839 562.751099,169.792160 
	C562.589050,159.662521 562.651733,149.529282 562.651733,139.099976 
	C565.812012,139.099976 568.718689,139.099976 571.765015,139.099976 
	C571.765015,150.169708 571.765015,161.104050 571.765015,172.722275 
	C569.661377,172.722275 567.727295,172.722275 565.360718,172.720200 
z"/>
<path fill="#474B53" opacity="1.000000" stroke="none" 
	d="
M570.491089,133.487885 
	C567.790405,133.566147 565.513184,133.566147 562.924805,133.566147 
	C562.924805,130.979553 562.924805,128.737427 562.924805,126.183350 
	C565.672058,126.183350 568.557251,126.183350 572.297791,126.183350 
	C571.825439,128.650986 571.370056,131.030304 570.491089,133.487885 
z"/>
<path fill="#FCFDFD" opacity="1.000000" stroke="none" 
	d="
M305.045776,164.983322 
	C297.275879,163.771713 293.281097,159.758652 292.963562,152.476334 
	C292.807648,148.900040 293.169952,145.173706 294.056244,141.709335 
	C295.380829,136.531906 299.388367,133.749786 304.609924,133.513519 
	C310.191986,133.260925 315.058594,135.613174 316.148651,140.864044 
	C317.245880,146.149536 317.376740,151.985992 316.332489,157.264832 
	C315.334229,162.311478 310.922211,164.981979 305.045776,164.983322 
z"/>
<path fill="#FCFCFC" opacity="1.000000" stroke="none" 
	d="
M450.305847,163.850281 
	C445.626526,165.025528 442.401672,163.964874 440.682739,159.567535 
	C438.917847,155.052536 439.854401,148.956589 442.783417,146.550644 
	C446.312042,143.652267 451.661102,144.815521 453.795959,148.945511 
	C456.396118,153.975677 455.204163,159.685883 450.305847,163.850281 
z"/>
<path fill="#F7F7F8" opacity="1.000000" stroke="none" 
	d="
M385.528381,145.085663 
	C387.800079,146.921005 389.676086,148.715240 391.552063,150.509476 
	C391.271973,150.895447 390.991882,151.281433 390.711792,151.667404 
	C386.020081,151.667404 381.328339,151.667404 376.647491,151.667404 
	C377.315552,146.363068 378.835968,145.153091 385.528381,145.085663 
z"/>
<path fill="#F7F7F7" opacity="1.000000" stroke="none" 
	d="
M488.824249,152.003754 
	C485.399017,152.003754 482.434235,152.003754 479.218353,152.003754 
	C479.926056,147.276855 482.383148,144.950500 486.876953,144.977936 
	C491.260437,145.004684 493.453125,147.376068 493.862671,152.003754 
	C492.211700,152.003754 490.748199,152.003754 488.824249,152.003754 
z"/>
</svg>