<svg version="1.1" id="Layer_1" xmlns="http://www.w3.org/2000/svg" xmlns:xlink="http://www.w3.org/1999/xlink" x="0px" y="0px"
	 width="100%" viewBox="0 0 815 539" enable-background="new 0 0 815 539" xml:space="preserve">
<path fill="#FFFFFF" opacity="1.000000" stroke="none" 
	d="
M1.999994,540.000000 
	C1.666658,539.833496 1.056180,539.684326 1.044444,539.497559 
	C0.961014,538.169800 1.000000,536.834412 1.000000,535.501404 
	C1.000000,357.380676 1.000000,179.259964 1.000000,1.069619 
	C272.550201,1.069619 544.100403,1.069619 815.825317,1.069619 
	C815.825317,180.666519 815.825317,360.333252 815.825317,540.000000 
	C814.322144,540.000000 812.655823,540.000000 810.398132,539.603516 
	C807.646179,538.805481 805.485535,538.052673 803.324829,538.052246 
	C538.507629,537.997131 273.690460,537.997498 8.873272,537.995789 
	C7.373405,537.995789 5.820158,537.772095 4.393141,538.097351 
	C3.497398,538.301453 2.791220,539.337280 1.999994,540.000000 
M196.049210,234.950180 
	C196.049164,241.115067 196.227310,247.286545 196.000122,253.443054 
	C195.761642,259.905304 196.100830,265.772491 204.515991,266.461792 
	C203.876678,277.110626 203.274414,287.142639 202.597504,298.417816 
	C198.801346,294.080505 195.895340,290.760223 193.064621,287.525970 
	C196.672028,279.376129 194.748657,274.935974 186.648895,271.703186 
	C180.805527,269.370941 175.056458,266.803284 169.245514,264.388336 
	C166.936172,263.428619 164.891602,263.678833 165.612411,266.773926 
	C167.150116,273.376648 168.515915,280.109161 170.990509,286.378662 
	C173.474472,292.671906 177.496506,294.101379 184.262344,292.996368 
	C185.477188,292.797943 187.339676,292.571136 187.942123,293.232666 
	C194.209732,300.114990 201.990250,306.152527 201.475479,316.986176 
	C201.189529,323.004822 204.777039,326.947113 210.099274,326.995850 
	C215.385757,327.044250 218.436783,323.095673 218.801575,316.969147 
	C219.008652,313.491394 219.846039,309.779602 221.449829,306.724548 
	C223.511139,302.797974 226.637253,299.432648 229.284225,295.810577 
	C231.232437,293.144653 233.451645,292.122711 236.975967,293.031097 
	C239.150208,293.591492 242.029007,293.128296 244.087357,292.107788 
	C250.273712,289.040802 256.372711,270.581329 253.729340,263.919312 
	C253.677994,263.789886 253.467194,263.723694 253.462967,263.720734 
	C245.593582,266.937988 237.689865,269.865875 230.065079,273.396179 
	C225.217300,275.640747 224.185959,279.555084 225.904221,284.708557 
	C226.277069,285.826813 226.738083,287.529419 226.201523,288.231445 
	C223.818512,291.349396 221.087433,294.201385 217.497833,298.263519 
	C216.815414,286.750275 216.213333,276.592468 215.620239,266.586212 
	C222.797058,264.443756 223.921982,262.974548 223.945175,256.161926 
	C223.970123,248.830765 224.135345,241.491074 223.804626,234.174774 
	C223.732803,232.585724 221.813004,231.080231 220.744339,229.536240 
	C219.826202,231.053787 218.201141,232.532837 218.116058,234.095734 
	C217.799484,239.910202 218.153610,245.759903 217.881363,251.578873 
	C217.806549,253.177765 216.427017,254.715607 215.646179,256.281464 
	C214.767807,254.647919 213.222336,253.050369 213.131927,251.374329 
	C212.818237,245.559540 213.210098,239.705856 212.871979,233.893814 
	C212.784943,232.397369 211.005905,230.999344 210.004150,229.556107 
	C209.019882,231.003372 207.264755,232.410065 207.186127,233.904968 
	C206.862717,240.052933 207.192215,246.233704 206.934830,252.387909 
	C206.878922,253.724991 205.391129,255.002197 204.562820,256.306976 
	C203.733521,254.950958 202.250092,253.624039 202.188263,252.233871 
	C201.921906,246.247391 202.254196,240.233093 201.950073,234.250214 
	C201.869232,232.659836 200.301315,231.145020 199.416183,229.595505 
	C198.294312,231.086136 197.172440,232.576767 196.049210,234.950180 
M282.288147,272.624054 
	C282.328857,273.620056 282.318390,274.621216 282.417999,275.611298 
	C283.736664,288.714600 291.302277,296.513245 303.833069,297.707031 
	C314.126373,298.687622 324.214874,291.823212 327.060364,281.902679 
	C330.795319,268.881165 326.194977,256.158569 315.577881,251.041702 
	C302.584656,244.779663 283.551910,250.920700 282.288147,272.624054 
M553.485901,278.161652 
	C555.070862,273.182800 556.655823,268.203949 558.283142,263.092041 
	C548.975647,262.381134 548.969055,262.379272 546.655518,270.506104 
	C545.397522,274.924957 544.166565,279.351562 542.923462,283.774658 
	C542.648926,283.710449 542.374390,283.646240 542.099854,283.582031 
	C540.329651,276.692902 538.559448,269.803772 536.818237,263.027466 
	C527.664917,262.429413 527.686768,262.434631 525.617981,271.084595 
	C524.610596,275.296875 523.504089,279.485504 522.442444,283.684814 
	C522.108337,283.644287 521.774292,283.603760 521.440186,283.563202 
	C519.519531,276.639404 517.598877,269.715607 515.757690,263.078369 
	C512.313721,263.078369 509.388855,263.078369 506.040466,263.078369 
	C508.788300,271.978851 511.409424,280.498627 514.049622,289.012451 
	C516.565186,297.124420 516.574219,297.125916 525.277344,296.598907 
	C525.559326,296.581818 525.824402,296.285553 526.386597,295.943390 
	C527.189880,292.807434 528.025391,289.437012 528.920410,286.082520 
	C529.831177,282.668945 530.800720,279.270996 531.744507,275.866211 
	C534.188477,281.744659 535.665710,287.486267 537.112549,293.235535 
	C537.690918,295.533997 538.662354,297.231720 541.488525,296.743256 
	C544.144043,296.284241 547.595825,298.193909 548.738037,293.654205 
	C549.989624,288.679810 551.713013,283.824127 553.485901,278.161652 
M431.666809,286.605377 
	C436.475830,296.370850 443.889618,298.134583 454.909973,291.943573 
	C455.243073,296.146454 455.497375,300.560394 450.974365,302.202667 
	C448.578278,303.072662 444.079224,302.803558 442.810028,301.220428 
	C439.485962,297.074158 435.800415,298.808136 431.521271,299.272980 
	C432.892548,302.024109 434.339020,304.875885 436.650818,306.482697 
	C441.904724,310.134399 447.964386,310.011230 453.914124,308.353210 
	C460.091278,306.631836 463.642487,302.525665 463.810028,296.120605 
	C464.096924,285.153229 463.889252,274.172882 463.889252,263.223816 
	C456.115112,262.219971 455.820892,262.303101 454.523682,265.794098 
	C445.661743,259.340698 435.661560,261.006226 432.347809,270.346527 
	C430.676910,275.056244 431.585236,280.681000 431.666809,286.605377 
M645.489868,264.983215 
	C638.715942,259.823669 632.338196,261.212616 625.892212,266.931244 
	C625.892212,260.868073 625.892212,255.582275 625.892212,250.253784 
	C622.735779,250.253784 619.874695,250.253784 617.041626,250.253784 
	C617.041626,265.882202 617.041626,281.164429 617.041626,296.480530 
	C620.067200,296.480530 622.841553,296.480530 626.091309,296.480530 
	C626.091309,291.115540 625.992554,285.990723 626.134033,280.872498 
	C626.202148,278.403595 626.481140,275.884979 627.095154,273.499695 
	C628.003357,269.971802 631.160522,268.502045 634.024658,269.529114 
	C636.115723,270.278961 638.628174,273.187714 638.809998,275.316986 
	C639.409729,282.343292 639.035950,289.452698 639.035950,296.341492 
	C642.716309,296.341492 645.456360,296.341492 648.363892,296.341492 
	C648.363892,288.152344 648.544922,280.343750 648.254089,272.552734 
	C648.166321,270.201447 646.769043,267.899017 645.489868,264.983215 
M382.075623,297.217926 
	C392.012573,297.640747 397.449158,294.128204 399.363708,284.670166 
	C395.441223,286.313110 392.424042,287.980286 389.191895,288.810394 
	C386.305054,289.551880 382.806519,290.309357 380.277557,289.302490 
	C378.182281,288.468262 377.106781,285.072723 374.846375,281.726776 
	C384.510376,281.726776 392.418274,281.726776 400.312439,281.726776 
	C400.141541,269.539185 394.786835,262.569489 385.473480,261.982178 
	C375.962860,261.382416 368.221283,267.449463 367.064941,276.408813 
	C365.620880,287.597961 370.797119,295.136475 382.075623,297.217926 
M503.646851,280.370392 
	C503.455994,278.719727 503.340332,277.056274 503.061371,275.420624 
	C501.771362,267.856567 495.925903,262.449371 488.533112,261.992981 
	C481.232727,261.542297 475.534760,264.305420 471.991486,270.796753 
	C468.411285,277.355621 469.308716,286.187286 474.074341,291.819824 
	C478.949127,297.581390 485.554260,298.312683 492.246368,296.781067 
	C497.487579,295.581512 501.229218,292.025146 502.757690,284.634491 
	C498.626801,286.321594 495.598328,287.941193 492.367004,288.764343 
	C489.463959,289.503815 485.990417,290.294128 483.419464,289.328644 
	C481.328583,288.543396 480.201691,285.191376 477.924622,281.948425 
	C481.754272,281.948425 483.741760,282.009186 485.724457,281.937012 
	C491.636505,281.721832 497.546692,281.454498 503.646851,280.370392 
M587.872803,276.949768 
	C588.344238,273.187134 589.955627,269.906403 593.871033,269.329590 
	C596.001404,269.015717 599.682495,269.831482 600.441406,271.292419 
	C603.178223,276.561218 607.093750,274.498474 610.953308,274.347748 
	C609.865295,265.413025 603.185791,260.944122 593.016357,261.980988 
	C583.647766,262.936249 577.512939,270.818604 578.148132,281.084442 
	C578.778320,291.270721 586.225952,298.022308 596.356384,297.527740 
	C603.153198,297.195953 611.189941,293.064117 610.827087,283.721710 
	C606.936218,283.812958 603.060608,282.346741 600.576843,287.741547 
	C598.593628,292.049011 591.187256,291.114502 589.205078,286.509949 
	C588.075256,283.885620 588.195129,280.723267 587.872803,276.949768 
M350.909729,296.726349 
	C351.955658,295.688293 353.462433,294.833740 353.962341,293.578278 
	C355.555237,289.577759 356.748566,285.419617 358.142670,281.338226 
	C360.197052,275.323822 362.291412,269.323059 364.420349,263.167297 
	C355.193146,262.300537 355.265717,262.321411 352.867706,270.660858 
	C351.560089,275.208130 349.957428,279.670563 348.062683,285.473389 
	C345.435669,277.229248 343.166412,270.107727 340.931458,263.093872 
	C337.587250,263.093872 334.529449,263.093872 331.241241,263.093872 
	C334.323883,272.190063 337.636597,280.846680 340.129944,289.733185 
	C341.676147,295.243988 344.208527,297.994019 350.909729,296.726349 
M667.351868,282.442017 
	C667.351868,278.136658 667.351868,273.831299 667.351868,269.357330 
	C669.739929,269.108368 671.822205,268.891235 673.778259,268.687286 
	C673.778259,266.615021 673.778259,264.830414 673.778259,263.061188 
	C671.622131,262.837433 669.700073,262.637970 667.562317,262.416107 
	C667.411499,259.022522 667.274902,255.948334 667.139648,252.905609 
	C663.896240,252.905609 661.117737,252.905609 657.916260,252.905609 
	C657.916260,256.244812 657.916260,259.331360 657.916260,262.479919 
	C655.916138,262.738037 654.325256,262.943329 652.727173,263.149536 
	C652.727173,265.162720 652.727173,266.922516 652.727173,268.825592 
	C654.583557,268.954071 656.169678,269.063843 658.061035,269.194733 
	C658.061035,275.648376 657.934143,281.787781 658.096741,287.919495 
	C658.259338,294.052521 660.457031,296.310822 666.508362,296.814301 
	C668.918213,297.014801 671.358704,296.847229 673.840332,296.847229 
	C673.917419,295.247009 674.015869,294.255554 673.999390,293.266052 
	C673.980652,292.138702 673.859375,291.013000 673.785583,289.930237 
	C667.800232,289.212158 667.800232,289.212158 667.351868,282.442017 
M405.983978,275.513977 
	C405.983978,282.442352 405.983978,289.370697 405.983978,296.499634 
	C409.263275,296.499634 412.006104,296.499634 415.646454,296.499634 
	C415.646454,290.501617 415.271942,284.693359 415.748596,278.955811 
	C416.255707,272.852112 418.607666,271.062622 424.756256,270.635620 
	C425.695251,270.570435 426.629761,270.440308 427.583374,270.338379 
	C427.583374,267.441833 427.583374,264.851959 427.583374,260.739960 
	C422.828339,262.856201 418.862366,264.621277 415.020935,266.330902 
	C414.891815,265.503357 414.695648,264.245880 414.498291,262.980804 
	C411.620453,262.980804 408.993439,262.980804 405.983978,262.980804 
	C405.983978,266.947906 405.983978,270.734436 405.983978,275.513977 
M565.792603,296.724213 
	C567.726990,296.724213 569.661377,296.724213 571.742920,296.724213 
	C571.829590,294.743164 571.934509,293.434357 571.936401,292.125397 
	C571.950500,282.493713 571.944031,272.862000 571.944031,263.098328 
	C568.718567,263.098328 565.811523,263.098328 562.649597,263.098328 
	C562.649597,273.528870 562.586914,283.663330 562.749023,293.794189 
	C562.764832,294.780853 564.168152,295.745300 565.792603,296.724213 
M571.948914,255.252151 
	C571.948914,253.533600 571.948914,251.815048 571.948914,250.075653 
	C568.560547,250.075653 565.809937,250.075653 562.988281,250.075653 
	C562.988281,252.616394 562.988281,254.962204 562.988281,258.248199 
	C566.317200,257.451080 569.116394,256.780762 571.948914,255.252151 
M812.390320,537.520142 
	C812.166443,537.464844 811.942566,537.409485 811.718689,537.354187 
	C811.861938,537.491028 812.005249,537.627930 812.390320,537.520142 
z"/>
<path fill="#E1E1E1" opacity="1.000000" stroke="none" 
	d="
M2.468656,540.000000 
	C2.791220,539.337280 3.497398,538.301453 4.393141,538.097351 
	C5.820158,537.772095 7.373405,537.995789 8.873272,537.995789 
	C273.690460,537.997498 538.507629,537.997131 803.324829,538.052246 
	C805.485535,538.052673 807.646179,538.805481 809.903442,539.603516 
	C540.979126,540.000000 271.958221,540.000000 2.468656,540.000000 
z"/>
<path fill="#52CDA5" opacity="1.000000" stroke="none" 
	d="
M196.049896,234.508789 
	C197.172440,232.576767 198.294312,231.086136 199.416183,229.595505 
	C200.301315,231.145020 201.869232,232.659836 201.950073,234.250214 
	C202.254196,240.233093 201.921906,246.247391 202.188263,252.233871 
	C202.250092,253.624039 203.733521,254.950958 204.562820,256.306976 
	C205.391129,255.002197 206.878922,253.724991 206.934830,252.387909 
	C207.192215,246.233704 206.862717,240.052933 207.186127,233.904968 
	C207.264755,232.410065 209.019882,231.003372 210.004150,229.556107 
	C211.005905,230.999344 212.784943,232.397369 212.871979,233.893814 
	C213.210098,239.705856 212.818237,245.559540 213.131927,251.374329 
	C213.222336,253.050369 214.767807,254.647919 215.646179,256.281464 
	C216.427017,254.715607 217.806549,253.177765 217.881363,251.578873 
	C218.153610,245.759903 217.799484,239.910202 218.116058,234.095734 
	C218.201141,232.532837 219.826202,231.053787 220.744339,229.536255 
	C221.813004,231.080231 223.732803,232.585724 223.804626,234.174774 
	C224.135345,241.491074 223.970123,248.830765 223.945175,256.161926 
	C223.921982,262.974548 222.797058,264.443756 215.620239,266.586212 
	C216.213333,276.592468 216.815414,286.750275 217.497833,298.263519 
	C221.087433,294.201385 223.818512,291.349396 226.201523,288.231445 
	C226.738083,287.529419 226.277069,285.826813 225.904221,284.708557 
	C224.185959,279.555084 225.217300,275.640747 230.065079,273.396179 
	C237.689865,269.865875 245.593582,266.937988 253.462967,263.720734 
	C253.467194,263.723694 253.677994,263.789886 253.729340,263.919312 
	C256.372711,270.581329 250.273712,289.040802 244.087357,292.107788 
	C242.029007,293.128296 239.150208,293.591492 236.975967,293.031097 
	C233.451645,292.122711 231.232437,293.144653 229.284225,295.810577 
	C226.637253,299.432648 223.511139,302.797974 221.449829,306.724548 
	C219.846039,309.779602 219.008652,313.491394 218.801575,316.969147 
	C218.436783,323.095673 215.385757,327.044250 210.099274,326.995850 
	C204.777039,326.947113 201.189529,323.004822 201.475479,316.986176 
	C201.990250,306.152527 194.209732,300.114990 187.942123,293.232666 
	C187.339676,292.571136 185.477188,292.797943 184.262344,292.996368 
	C177.496506,294.101379 173.474472,292.671906 170.990509,286.378662 
	C168.515915,280.109161 167.150116,273.376648 165.612411,266.773926 
	C164.891602,263.678833 166.936172,263.428619 169.245514,264.388336 
	C175.056458,266.803284 180.805527,269.370941 186.648895,271.703186 
	C194.748657,274.935974 196.672028,279.376129 193.064621,287.525970 
	C195.895340,290.760223 198.801346,294.080505 202.597504,298.417816 
	C203.274414,287.142639 203.876678,277.110626 204.515991,266.461792 
	C196.100830,265.772491 195.761642,259.905304 196.000122,253.443054 
	C196.227310,247.286545 196.049164,241.115067 196.049896,234.508789 
z"/>
<path fill="#3F444C" opacity="1.000000" stroke="none" 
	d="
M282.335876,272.187805 
	C283.551910,250.920700 302.584656,244.779663 315.577881,251.041702 
	C326.194977,256.158569 330.795319,268.881165 327.060364,281.902679 
	C324.214874,291.823212 314.126373,298.687622 303.833069,297.707031 
	C291.302277,296.513245 283.736664,288.714600 282.417999,275.611298 
	C282.318390,274.621216 282.328857,273.620056 282.335876,272.187805 
M304.595764,257.515350 
	C300.222473,257.608948 296.758240,259.573517 294.948395,263.440338 
	C291.853271,270.053284 291.495758,276.906097 295.210358,283.452545 
	C298.570770,289.374878 307.395599,291.099854 312.549347,286.682373 
	C318.373993,281.689850 318.851135,274.962372 317.275024,267.995728 
	C315.651917,260.821472 313.039459,258.621490 304.595764,257.515350 
z"/>
<path fill="#41454D" opacity="1.000000" stroke="none" 
	d="
M553.358398,278.539185 
	C551.713013,283.824127 549.989624,288.679810 548.738037,293.654205 
	C547.595825,298.193909 544.144043,296.284241 541.488525,296.743256 
	C538.662354,297.231720 537.690918,295.533997 537.112549,293.235535 
	C535.665710,287.486267 534.188477,281.744659 531.744507,275.866211 
	C530.800720,279.270996 529.831177,282.668945 528.920410,286.082520 
	C528.025391,289.437012 527.189880,292.807434 526.386597,295.943390 
	C525.824402,296.285553 525.559326,296.581818 525.277344,296.598907 
	C516.574219,297.125916 516.565186,297.124420 514.049622,289.012451 
	C511.409424,280.498627 508.788300,271.978851 506.040466,263.078369 
	C509.388855,263.078369 512.313721,263.078369 515.757690,263.078369 
	C517.598877,269.715607 519.519531,276.639404 521.440186,283.563202 
	C521.774292,283.603760 522.108337,283.644287 522.442444,283.684814 
	C523.504089,279.485504 524.610596,275.296875 525.617981,271.084595 
	C527.686768,262.434631 527.664917,262.429413 536.818237,263.027466 
	C538.559448,269.803772 540.329651,276.692902 542.099854,283.582031 
	C542.374390,283.646240 542.648926,283.710449 542.923462,283.774658 
	C544.166565,279.351562 545.397522,274.924957 546.655518,270.506104 
	C548.969055,262.379272 548.975647,262.381134 558.283142,263.092041 
	C556.655823,268.203949 555.070862,273.182800 553.358398,278.539185 
z"/>
<path fill="#40454C" opacity="1.000000" stroke="none" 
	d="
M431.497070,286.248688 
	C431.585236,280.681000 430.676910,275.056244 432.347809,270.346527 
	C435.661560,261.006226 445.661743,259.340698 454.523682,265.794098 
	C455.820892,262.303101 456.115112,262.219971 463.889252,263.223816 
	C463.889252,274.172882 464.096924,285.153229 463.810028,296.120605 
	C463.642487,302.525665 460.091278,306.631836 453.914124,308.353210 
	C447.964386,310.011230 441.904724,310.134399 436.650818,306.482697 
	C434.339020,304.875885 432.892548,302.024109 431.521271,299.272980 
	C435.800415,298.808136 439.485962,297.074158 442.810028,301.220428 
	C444.079224,302.803558 448.578278,303.072662 450.974365,302.202667 
	C455.497375,300.560394 455.243073,296.146454 454.909973,291.943573 
	C443.889618,298.134583 436.475830,296.370850 431.497070,286.248688 
M448.272339,269.051056 
	C443.899933,268.655243 441.090637,270.846252 440.245361,274.874603 
	C439.307831,279.342743 439.177002,284.128387 443.399536,287.190887 
	C446.358612,289.337097 449.805389,288.925262 452.468231,286.261169 
	C457.205597,281.521637 455.255096,272.069977 448.272339,269.051056 
z"/>
<path fill="#40454D" opacity="1.000000" stroke="none" 
	d="
M645.730713,265.278717 
	C646.769043,267.899017 648.166321,270.201447 648.254089,272.552734 
	C648.544922,280.343750 648.363892,288.152344 648.363892,296.341492 
	C645.456360,296.341492 642.716309,296.341492 639.035950,296.341492 
	C639.035950,289.452698 639.409729,282.343292 638.809998,275.316986 
	C638.628174,273.187714 636.115723,270.278961 634.024658,269.529114 
	C631.160522,268.502045 628.003357,269.971802 627.095154,273.499695 
	C626.481140,275.884979 626.202148,278.403595 626.134033,280.872498 
	C625.992554,285.990723 626.091309,291.115540 626.091309,296.480530 
	C622.841553,296.480530 620.067200,296.480530 617.041626,296.480530 
	C617.041626,281.164429 617.041626,265.882202 617.041626,250.253784 
	C619.874695,250.253784 622.735779,250.253784 625.892212,250.253784 
	C625.892212,255.582275 625.892212,260.868073 625.892212,266.931244 
	C632.338196,261.212616 638.715942,259.823669 645.730713,265.278717 
z"/>
<path fill="#40454C" opacity="1.000000" stroke="none" 
	d="
M381.676514,297.162659 
	C370.797119,295.136475 365.620880,287.597961 367.064941,276.408813 
	C368.221283,267.449463 375.962860,261.382416 385.473480,261.982178 
	C394.786835,262.569489 400.141541,269.539185 400.312439,281.726776 
	C392.418274,281.726776 384.510376,281.726776 374.846375,281.726776 
	C377.106781,285.072723 378.182281,288.468262 380.277557,289.302490 
	C382.806519,290.309357 386.305054,289.551880 389.191895,288.810394 
	C392.424042,287.980286 395.441223,286.313110 399.363708,284.670166 
	C397.449158,294.128204 392.012573,297.640747 381.676514,297.162659 
M385.133026,269.043121 
	C378.835175,269.151276 377.313171,270.362549 376.645752,275.668060 
	C381.327698,275.668060 386.020508,275.668060 390.713348,275.668060 
	C390.986664,275.274994 391.260010,274.881927 391.533325,274.488861 
	C389.663788,272.700989 387.794250,270.913086 385.133026,269.043121 
z"/>
<path fill="#40454C" opacity="1.000000" stroke="none" 
	d="
M503.552216,280.788971 
	C497.546692,281.454498 491.636505,281.721832 485.724457,281.937012 
	C483.741760,282.009186 481.754272,281.948425 477.924622,281.948425 
	C480.201691,285.191376 481.328583,288.543396 483.419464,289.328644 
	C485.990417,290.294128 489.463959,289.503815 492.367004,288.764343 
	C495.598328,287.941193 498.626801,286.321594 502.757690,284.634491 
	C501.229218,292.025146 497.487579,295.581512 492.246368,296.781067 
	C485.554260,298.312683 478.949127,297.581390 474.074341,291.819824 
	C469.308716,286.187286 468.411285,277.355621 471.991486,270.796753 
	C475.534760,264.305420 481.232727,261.542297 488.533112,261.992981 
	C495.925903,262.449371 501.771362,267.856567 503.061371,275.420624 
	C503.340332,277.056274 503.455994,278.719727 503.552216,280.788971 
M480.511993,272.091003 
	C480.036011,273.260803 479.560028,274.430573 479.015106,275.769684 
	C484.227386,275.769684 488.970154,275.769684 493.759369,275.769684 
	C492.163513,268.433044 487.088593,266.806030 480.511993,272.091003 
z"/>
<path fill="#42464E" opacity="1.000000" stroke="none" 
	d="
M587.812500,277.376465 
	C588.195129,280.723267 588.075256,283.885620 589.205078,286.509949 
	C591.187256,291.114502 598.593628,292.049011 600.576843,287.741547 
	C603.060608,282.346741 606.936218,283.812958 610.827087,283.721710 
	C611.189941,293.064117 603.153198,297.195953 596.356384,297.527740 
	C586.225952,298.022308 578.778320,291.270721 578.148132,281.084442 
	C577.512939,270.818604 583.647766,262.936249 593.016357,261.980988 
	C603.185791,260.944122 609.865295,265.413025 610.953308,274.347748 
	C607.093750,274.498474 603.178223,276.561218 600.441406,271.292419 
	C599.682495,269.831482 596.001404,269.015717 593.871033,269.329590 
	C589.955627,269.906403 588.344238,273.187134 587.812500,277.376465 
z"/>
<path fill="#40454C" opacity="1.000000" stroke="none" 
	d="
M350.487366,296.728027 
	C344.208527,297.994019 341.676147,295.243988 340.129944,289.733185 
	C337.636597,280.846680 334.323883,272.190063 331.241241,263.093872 
	C334.529449,263.093872 337.587250,263.093872 340.931458,263.093872 
	C343.166412,270.107727 345.435669,277.229248 348.062683,285.473389 
	C349.957428,279.670563 351.560089,275.208130 352.867706,270.660858 
	C355.265717,262.321411 355.193146,262.300537 364.420349,263.167297 
	C362.291412,269.323059 360.197052,275.323822 358.142670,281.338226 
	C356.748566,285.419617 355.555237,289.577759 353.962341,293.578278 
	C353.462433,294.833740 351.955658,295.688293 350.487366,296.728027 
z"/>
<path fill="#3E434B" opacity="1.000000" stroke="none" 
	d="
M667.351929,282.929565 
	C667.800232,289.212158 667.800232,289.212158 673.785583,289.930237 
	C673.859375,291.013000 673.980652,292.138702 673.999390,293.266052 
	C674.015869,294.255554 673.917419,295.247009 673.840332,296.847229 
	C671.358704,296.847229 668.918213,297.014801 666.508362,296.814301 
	C660.457031,296.310822 658.259338,294.052521 658.096741,287.919495 
	C657.934143,281.787781 658.061035,275.648376 658.061035,269.194733 
	C656.169678,269.063843 654.583557,268.954071 652.727173,268.825592 
	C652.727173,266.922516 652.727173,265.162720 652.727173,263.149536 
	C654.325256,262.943329 655.916138,262.738037 657.916260,262.479919 
	C657.916260,259.331360 657.916260,256.244812 657.916260,252.905609 
	C661.117737,252.905609 663.896240,252.905609 667.139648,252.905609 
	C667.274902,255.948334 667.411499,259.022522 667.562317,262.416107 
	C669.700073,262.637970 671.622131,262.837433 673.778259,263.061188 
	C673.778259,264.830414 673.778259,266.615021 673.778259,268.687286 
	C671.822205,268.891235 669.739929,269.108368 667.351868,269.357330 
	C667.351868,273.831299 667.351868,278.136658 667.351929,282.929565 
z"/>
<path fill="#3F444C" opacity="1.000000" stroke="none" 
	d="
M405.983978,275.017487 
	C405.983978,270.734436 405.983978,266.947906 405.983978,262.980804 
	C408.993439,262.980804 411.620453,262.980804 414.498291,262.980804 
	C414.695648,264.245880 414.891815,265.503357 415.020935,266.330902 
	C418.862366,264.621277 422.828339,262.856201 427.583374,260.739960 
	C427.583374,264.851959 427.583374,267.441833 427.583374,270.338379 
	C426.629761,270.440308 425.695251,270.570435 424.756256,270.635620 
	C418.607666,271.062622 416.255707,272.852112 415.748596,278.955811 
	C415.271942,284.693359 415.646454,290.501617 415.646454,296.499634 
	C412.006104,296.499634 409.263275,296.499634 405.983978,296.499634 
	C405.983978,289.370697 405.983978,282.442352 405.983978,275.017487 
z"/>
<path fill="#3E434B" opacity="1.000000" stroke="none" 
	d="
M565.359985,296.722137 
	C564.168152,295.745300 562.764832,294.780853 562.749023,293.794189 
	C562.586914,283.663330 562.649597,273.528870 562.649597,263.098328 
	C565.811523,263.098328 568.718567,263.098328 571.944031,263.098328 
	C571.944031,272.862000 571.950500,282.493713 571.936401,292.125397 
	C571.934509,293.434357 571.829590,294.743164 571.742920,296.724213 
	C569.661377,296.724213 567.726990,296.724213 565.359985,296.722137 
z"/>
<path fill="#42464E" opacity="1.000000" stroke="none" 
	d="
M571.932251,255.681305 
	C569.116394,256.780762 566.317200,257.451080 562.988281,258.248199 
	C562.988281,254.962204 562.988281,252.616394 562.988281,250.075653 
	C565.809937,250.075653 568.560547,250.075653 571.948914,250.075653 
	C571.948914,251.815048 571.948914,253.533600 571.932251,255.681305 
z"/>
<path fill="#E1E1E1" opacity="1.000000" stroke="none" 
	d="
M812.269409,537.642456 
	C812.005249,537.627930 811.861938,537.491028 811.718689,537.354187 
	C811.942566,537.409485 812.166443,537.464844 812.269409,537.642456 
z"/>
<path fill="#FCFDFD" opacity="1.000000" stroke="none" 
	d="
M305.025024,257.461151 
	C313.039459,258.621490 315.651917,260.821472 317.275024,267.995728 
	C318.851135,274.962372 318.373993,281.689850 312.549347,286.682373 
	C307.395599,291.099854 298.570770,289.374878 295.210358,283.452545 
	C291.495758,276.906097 291.853271,270.053284 294.948395,263.440338 
	C296.758240,259.573517 300.222473,257.608948 305.025024,257.461151 
z"/>
<path fill="#FCFDFD" opacity="1.000000" stroke="none" 
	d="
M448.667175,269.098785 
	C455.255096,272.069977 457.205597,281.521637 452.468231,286.261169 
	C449.805389,288.925262 446.358612,289.337097 443.399536,287.190887 
	C439.177002,284.128387 439.307831,279.342743 440.245361,274.874603 
	C441.090637,270.846252 443.899933,268.655243 448.667175,269.098785 
z"/>
<path fill="#F7F7F7" opacity="1.000000" stroke="none" 
	d="
M385.528870,269.084167 
	C387.794250,270.913086 389.663788,272.700989 391.533325,274.488861 
	C391.260010,274.881927 390.986664,275.274994 390.713348,275.668060 
	C386.020508,275.668060 381.327698,275.668060 376.645752,275.668060 
	C377.313171,270.362549 378.835175,269.151276 385.528870,269.084167 
z"/>
<path fill="#F7F7F7" opacity="1.000000" stroke="none" 
	d="
M480.737183,271.770142 
	C487.088593,266.806030 492.163513,268.433044 493.759369,275.769684 
	C488.970154,275.769684 484.227386,275.769684 479.015106,275.769684 
	C479.560028,274.430573 480.036011,273.260803 480.737183,271.770142 
z"/>
</svg>