<svg version="1.1" id="Layer_1" xmlns="http://www.w3.org/2000/svg" xmlns:xlink="http://www.w3.org/1999/xlink" x="0px" y="0px"
	 width="100%" viewBox="0 0 283 305" enable-background="new 0 0 283 305" xml:space="preserve">
<path fill="#FFFFFF" opacity="1.000000" stroke="none" 
	d="
M192.000000,306.000000 
	C128.000015,306.000000 64.500023,306.000000 1.000026,306.000000 
	C1.000017,204.333359 1.000017,102.666725 1.000009,1.000067 
	C95.333282,1.000044 189.666565,1.000044 283.999878,1.000022 
	C283.999939,102.666603 283.999939,204.333206 283.999969,305.999908 
	C253.500000,306.000000 223.000000,306.000000 192.000000,306.000000 
M177.946182,255.579269 
	C177.946243,247.106369 177.949982,247.115265 185.935242,243.764603 
	C187.467987,243.121460 188.973282,242.407944 190.466599,241.676590 
	C214.204041,230.051102 226.150970,209.578369 223.771454,183.933594 
	C222.613525,171.454224 217.731720,160.093475 211.466385,149.412384 
	C201.701965,132.766052 188.417465,119.375351 172.312393,108.793808 
	C167.652863,105.732346 162.682327,105.054695 157.773056,108.226585 
	C153.290100,111.123039 151.508682,115.450554 152.105789,120.684036 
	C152.645950,125.418396 155.897110,128.159088 159.558365,130.736481 
	C177.430893,143.318024 191.399963,158.961014 197.413300,180.532364 
	C201.850998,196.451447 196.318680,209.852585 181.763550,217.547974 
	C176.239365,220.468643 170.066986,222.186874 164.141953,224.319580 
	C157.391708,226.749313 154.386322,230.163925 154.284531,237.112122 
	C154.084396,250.772369 154.072495,264.439911 154.281891,278.099823 
	C154.395416,285.504608 159.814941,290.826050 166.425339,290.741211 
	C172.945328,290.657562 177.861130,285.086029 177.931717,277.554657 
	C177.997314,270.557068 177.945969,263.558350 177.946182,255.579269 
M89.475456,122.966629 
	C77.302940,134.612244 67.425217,147.901199 61.223171,163.642517 
	C54.385765,180.996460 52.552982,198.451828 61.610256,215.733292 
	C69.383942,230.565643 82.154678,239.434998 97.420471,245.055969 
	C100.798531,246.299805 102.039421,247.812714 101.950470,251.440445 
	C101.717827,260.928833 101.738991,270.433960 102.031914,279.920898 
	C102.214920,285.847839 107.332993,290.486725 113.134338,290.708862 
	C118.846352,290.927551 124.755035,286.568146 124.909218,280.772949 
	C125.316101,265.478912 125.245514,250.165909 125.030151,234.865173 
	C124.960930,229.947632 121.945457,226.563416 117.177422,224.986359 
	C113.078705,223.630676 108.906570,222.472717 104.874901,220.942749 
	C88.306290,214.655136 79.552963,203.426819 81.237198,188.109940 
	C82.102768,180.238174 85.012878,172.223358 88.626381,165.098495 
	C96.063042,150.435364 107.579010,139.152893 121.195549,129.958740 
	C128.093979,125.300781 129.776428,117.930534 125.733223,111.813805 
	C121.759613,105.802376 114.010262,104.355522 107.285515,109.010330 
	C101.289078,113.161026 95.764282,117.993103 89.475456,122.966629 
M131.554291,98.126404 
	C149.731796,101.434479 166.021912,93.170929 173.445084,76.876297 
	C180.433167,61.536732 175.918488,43.484108 161.914825,32.722439 
	C150.719330,24.118801 138.121979,22.469419 125.223312,28.125957 
	C111.873558,33.980312 104.271339,44.405674 102.902054,59.234325 
	C101.390060,75.608322 111.782928,92.861534 131.554291,98.126404 
z"/>
<path fill="#51CDA5" opacity="1.000000" stroke="none" 
	d="
M177.946152,256.069702 
	C177.945969,263.558350 177.997314,270.557068 177.931717,277.554657 
	C177.861130,285.086029 172.945328,290.657562 166.425339,290.741211 
	C159.814941,290.826050 154.395416,285.504608 154.281891,278.099823 
	C154.072495,264.439911 154.084396,250.772369 154.284531,237.112122 
	C154.386322,230.163925 157.391708,226.749313 164.141953,224.319580 
	C170.066986,222.186874 176.239365,220.468643 181.763550,217.547974 
	C196.318680,209.852585 201.850998,196.451447 197.413300,180.532364 
	C191.399963,158.961014 177.430893,143.318024 159.558365,130.736481 
	C155.897110,128.159088 152.645950,125.418396 152.105789,120.684036 
	C151.508682,115.450554 153.290100,111.123039 157.773056,108.226585 
	C162.682327,105.054695 167.652863,105.732346 172.312393,108.793808 
	C188.417465,119.375351 201.701965,132.766052 211.466385,149.412384 
	C217.731720,160.093475 222.613525,171.454224 223.771454,183.933594 
	C226.150970,209.578369 214.204041,230.051102 190.466599,241.676590 
	C188.973282,242.407944 187.467987,243.121460 185.935242,243.764603 
	C177.949982,247.115265 177.946243,247.106369 177.946152,256.069702 
z"/>
<path fill="#50CDA4" opacity="1.000000" stroke="none" 
	d="
M89.753403,122.745560 
	C95.764282,117.993103 101.289078,113.161026 107.285515,109.010330 
	C114.010262,104.355522 121.759613,105.802376 125.733223,111.813805 
	C129.776428,117.930534 128.093979,125.300781 121.195549,129.958740 
	C107.579010,139.152893 96.063042,150.435364 88.626381,165.098495 
	C85.012878,172.223358 82.102768,180.238174 81.237198,188.109940 
	C79.552963,203.426819 88.306290,214.655136 104.874901,220.942749 
	C108.906570,222.472717 113.078705,223.630676 117.177422,224.986359 
	C121.945457,226.563416 124.960930,229.947632 125.030151,234.865173 
	C125.245514,250.165909 125.316101,265.478912 124.909218,280.772949 
	C124.755035,286.568146 118.846352,290.927551 113.134338,290.708862 
	C107.332993,290.486725 102.214920,285.847839 102.031914,279.920898 
	C101.738991,270.433960 101.717827,260.928833 101.950470,251.440445 
	C102.039421,247.812714 100.798531,246.299805 97.420471,245.055969 
	C82.154678,239.434998 69.383942,230.565643 61.610256,215.733292 
	C52.552982,198.451828 54.385765,180.996460 61.223171,163.642517 
	C67.425217,147.901199 77.302940,134.612244 89.753403,122.745560 
z"/>
<path fill="#51CDA5" opacity="1.000000" stroke="none" 
	d="
M131.151779,98.023148 
	C111.782928,92.861534 101.390060,75.608322 102.902054,59.234325 
	C104.271339,44.405674 111.873558,33.980312 125.223312,28.125957 
	C138.121979,22.469419 150.719330,24.118801 161.914825,32.722439 
	C175.918488,43.484108 180.433167,61.536732 173.445084,76.876297 
	C166.021912,93.170929 149.731796,101.434479 131.151779,98.023148 
M146.965530,45.081371 
	C145.030106,44.665249 143.111725,44.013504 141.156433,43.872055 
	C130.185822,43.078423 121.133232,51.273987 121.106529,61.900356 
	C121.079636,72.603760 129.964783,80.840477 140.913834,80.262131 
	C148.806335,79.845230 155.724640,74.040092 157.629745,66.235855 
	C159.641220,57.995735 156.119431,50.654232 146.965530,45.081371 
z"/>
<path fill="#FDFFFE" opacity="1.000000" stroke="none" 
	d="
M147.312744,45.267166 
	C156.119431,50.654232 159.641220,57.995735 157.629745,66.235855 
	C155.724640,74.040092 148.806335,79.845230 140.913834,80.262131 
	C129.964783,80.840477 121.079636,72.603760 121.106529,61.900356 
	C121.133232,51.273987 130.185822,43.078423 141.156433,43.872055 
	C143.111725,44.013504 145.030106,44.665249 147.312744,45.267166 
z"/>
</svg>