<svg version="1.1" id="Layer_1" xmlns="http://www.w3.org/2000/svg" xmlns:xlink="http://www.w3.org/1999/xlink" x="0px" y="0px"
	 width="100%" viewBox="0 0 820 540" enable-background="new 0 0 820 540" xml:space="preserve">
<path fill="#FFFFFF" opacity="1.000000" stroke="none" 
	d="
M756.000000,541.000000 
	C504.000031,541.000000 252.500092,541.000000 1.000101,541.000000 
	C1.000067,361.000092 1.000067,181.000153 1.000034,1.000174 
	C274.333221,1.000116 547.666443,1.000116 820.999756,1.000058 
	C820.999817,180.999832 820.999817,360.999664 820.999878,540.999756 
	C799.500000,541.000000 778.000000,541.000000 756.000000,541.000000 
M198.650650,254.014450 
	C202.226883,251.265793 203.457870,247.808228 200.479187,244.138672 
	C197.645386,240.647614 193.957108,241.443451 190.621170,243.663239 
	C188.414780,245.131393 186.340256,246.824371 184.337250,248.566757 
	C177.203857,254.772079 171.723145,262.194427 168.061493,270.942780 
	C160.618011,288.726593 166.949417,304.752197 184.705399,312.296692 
	C187.679214,313.560242 188.813065,315.049286 188.645615,318.167358 
	C188.440750,321.982117 188.472046,325.825958 188.680466,329.641968 
	C188.896820,333.602936 190.588135,336.207062 195.187225,336.052490 
	C199.649918,335.902496 200.819199,333.125824 200.916214,329.456818 
	C201.034927,324.967529 200.998123,320.472137 200.939941,315.980530 
	C200.810684,306.004181 202.820343,304.152374 190.320419,300.415039 
	C179.982361,297.324066 175.882202,288.550873 179.254791,278.294922 
	C182.595001,268.137451 189.516083,260.597198 198.650650,254.014450 
M238.419128,286.322906 
	C238.257721,292.116119 234.893814,295.922302 230.231659,298.559265 
	C227.230927,300.256470 223.536362,300.795319 220.684830,302.664856 
	C218.646484,304.001251 216.330597,306.591583 216.155258,308.783722 
	C215.586609,315.893188 215.882538,323.077881 215.976303,330.231873 
	C216.025238,333.966522 217.835068,336.012024 221.852295,336.054382 
	C225.905807,336.097076 227.641434,333.900421 227.882172,330.298920 
	C228.103668,326.985291 228.221634,323.617371 227.882721,320.325073 
	C227.411087,315.743378 228.946884,313.397675 233.448288,311.494476 
	C248.494888,305.132629 254.705872,291.159027 250.152267,275.536316 
	C246.467392,262.894012 238.595108,253.247269 228.363464,245.382736 
	C222.665329,241.002869 218.281555,240.855576 215.757202,244.479691 
	C213.190002,248.165314 214.440582,251.013031 220.396072,255.785202 
	C229.985931,263.469604 237.739960,272.317963 238.419128,286.322906 
M426.909607,283.526459 
	C430.381989,282.913940 433.854370,282.301392 437.571655,281.645691 
	C437.944153,285.723358 437.722748,289.917603 433.364288,291.673218 
	C428.212219,293.748627 424.015686,291.644592 421.311432,286.608398 
	C418.909760,287.742004 416.766663,288.753571 414.633728,289.760315 
	C418.356812,297.664703 424.590393,300.480164 434.323761,298.951752 
	C441.238495,297.865906 445.766632,293.428223 446.154510,285.627350 
	C446.672180,275.215790 446.282440,264.759125 446.282440,253.428925 
	C443.007141,254.112167 440.107269,254.717102 435.939270,255.586563 
	C432.134796,252.519592 426.405090,252.106583 420.851013,255.798828 
	C415.266266,259.511505 413.799011,265.276215 414.860535,271.618286 
	C415.924530,277.975311 419.729126,281.966003 426.909607,283.526459 
M516.845703,267.845551 
	C518.052551,271.296234 519.255127,274.748383 520.467102,278.197266 
	C522.917969,285.171600 522.920044,285.170868 530.846191,284.590179 
	C534.320068,274.631744 537.835815,264.553497 541.433105,254.241333 
	C537.983337,254.241333 535.204834,254.241333 532.494690,254.241333 
	C530.498535,260.410461 528.584106,266.326965 526.234924,273.587006 
	C524.171509,268.079987 522.122620,263.916443 521.088074,259.514465 
	C519.846497,254.231369 517.057800,252.866226 512.124451,254.463196 
	C509.943695,260.352325 507.737213,266.311035 505.036407,273.604645 
	C502.655273,266.245392 500.696045,260.190155 498.766724,254.227249 
	C495.697601,254.227249 492.939148,254.227249 489.841583,254.227249 
	C493.463623,264.661591 496.971863,274.768097 500.401672,284.648621 
	C503.450439,284.648621 505.917908,284.648621 508.475922,284.648621 
	C510.556091,278.893097 512.550537,273.277374 514.673584,267.710754 
	C514.822083,267.321320 515.924011,267.295502 516.845703,267.845551 
M226.079315,212.711487 
	C222.651505,204.189438 215.930023,199.670654 207.234100,200.042068 
	C199.606140,200.367859 192.441315,205.840958 190.072083,213.151825 
	C187.587769,220.817780 190.182251,228.999130 196.720169,234.115692 
	C203.019547,239.045578 211.504868,239.343292 218.657745,234.885376 
	C225.664276,230.518661 228.435471,222.799103 226.079315,212.711487 
M603.409973,279.273499 
	C603.409973,281.042450 603.409973,282.811401 603.409973,284.583618 
	C606.697510,284.583618 609.277710,284.583618 612.118164,284.583618 
	C612.118164,279.315155 612.093689,274.332733 612.124573,269.350616 
	C612.160645,263.536957 614.382629,260.396179 618.462219,260.297699 
	C622.690308,260.195557 624.358826,262.698730 624.402954,269.334015 
	C624.436890,274.428925 624.409729,279.524200 624.409729,284.560944 
	C627.735229,284.560944 630.306335,284.560944 633.028503,284.560944 
	C633.028503,277.437866 633.216553,270.617920 632.978455,263.812897 
	C632.712280,256.207672 627.866821,252.356232 620.269043,253.556015 
	C617.715759,253.959198 615.258484,254.970154 612.084351,255.900620 
	C612.084351,249.995529 612.084351,244.446594 612.084351,239.095352 
	C608.850098,239.095352 606.247437,239.095352 603.410217,239.095352 
	C603.410217,252.384918 603.410217,265.356079 603.409973,279.273499 
M382.797394,277.581116 
	C382.790558,276.852448 382.810425,275.487305 382.773041,275.485718 
	C379.865845,275.363800 377.083038,273.428192 374.023438,276.357971 
	C372.418610,277.894714 368.636566,278.327972 366.337646,277.624939 
	C364.237732,276.982758 362.811584,274.137360 361.088501,272.262909 
	C361.432922,271.828064 361.777344,271.393219 362.121765,270.958374 
	C369.364594,270.958374 376.607422,270.958374 384.099518,270.958374 
	C384.460754,264.662781 383.515320,259.287292 378.132233,255.756683 
	C370.967010,251.057205 359.878235,253.225525 355.414032,260.067078 
	C350.837524,267.080719 352.800964,277.975708 359.190918,282.429047 
	C366.009705,287.181274 378.971222,285.822601 382.797394,277.581116 
M455.466705,263.173340 
	C453.744781,270.749359 453.955902,277.860687 461.168396,282.723816 
	C470.009064,288.684814 482.767151,284.655640 484.786987,273.930634 
	C481.070282,275.134796 477.830200,275.658417 475.143127,277.166992 
	C469.902557,280.109222 464.614685,277.680695 463.612335,270.881531 
	C471.047516,270.881531 478.413208,270.881531 485.724579,270.881531 
	C486.073975,261.452271 482.617889,255.768234 475.851532,254.002594 
	C466.944946,251.678482 459.739990,254.720337 455.466705,263.173340 
M312.007416,273.455170 
	C312.851471,260.943024 308.274170,254.687347 297.348450,253.421158 
	C288.334473,252.376526 280.325836,257.806213 279.034485,265.837646 
	C277.493347,275.422455 282.097656,282.813446 290.872314,284.840088 
	C300.374512,287.034790 307.847321,283.244995 312.007416,273.455170 
M565.075928,274.314117 
	C568.291077,282.538971 573.909424,285.912109 583.042725,285.101044 
	C589.819580,284.499268 593.909180,280.923065 595.644226,272.977631 
	C592.438538,273.708160 588.825989,273.463593 587.160400,275.146271 
	C584.221680,278.115143 581.197144,279.029419 577.776611,277.672272 
	C573.913635,276.139587 572.761658,272.450378 573.083801,268.558807 
	C573.402466,264.707153 574.827026,261.141113 579.245972,260.664612 
	C581.339111,260.438934 584.778015,260.849976 585.530884,262.162994 
	C588.253540,266.911438 591.940735,264.783783 595.517029,264.730469 
	C593.643127,256.120300 586.460449,251.887283 577.228394,253.723358 
	C567.589844,255.640274 562.822083,263.293762 565.075928,274.314117 
M649.914856,283.825195 
	C653.122498,284.250580 656.330139,284.675964 659.823242,285.139221 
	C659.823242,282.409149 659.823242,280.474670 659.823242,279.578033 
	C657.453735,277.788818 654.410461,276.650482 654.187439,275.105164 
	C653.516968,270.459015 653.945801,265.654236 653.945801,260.992981 
	C656.282227,260.761597 658.048035,260.586700 659.748108,260.418335 
	C659.748108,258.117432 659.748108,256.196320 659.748108,253.912048 
	C657.715759,253.912048 655.951660,253.912048 653.692139,253.912048 
	C653.692139,250.480194 653.692139,247.406509 653.692139,244.315704 
	C650.809814,244.315704 648.436829,244.315704 645.708069,244.315704 
	C646.439026,249.920456 645.750916,254.453766 639.188110,254.346817 
	C639.188110,256.691040 639.188110,258.633362 639.188110,260.554169 
	C641.254944,260.727875 643.019653,260.876160 644.895386,261.033813 
	C644.895386,265.843903 644.348877,270.264404 645.075256,274.464783 
	C645.616821,277.595978 647.804504,280.442535 649.914856,283.825195 
M347.100769,253.986420 
	C341.774719,252.943359 339.068024,255.081055 337.824341,260.449738 
	C336.756073,265.061188 334.551147,269.409363 332.562653,274.624573 
	C329.830688,267.255737 327.385315,260.659882 324.991425,254.202850 
	C321.901642,254.202850 319.140289,254.202850 315.946564,254.202850 
	C319.868469,263.531128 323.748810,272.479706 327.363007,281.534546 
	C328.395264,284.120636 329.747070,284.973724 332.506775,284.962952 
	C335.247162,284.952240 336.698120,284.108063 337.736572,281.560425 
	C341.054077,273.421661 344.629150,265.388123 347.983765,257.263977 
	C348.363861,256.343567 347.975525,255.105865 347.100769,253.986420 
M407.269104,254.059402 
	C405.240082,255.075043 403.211060,256.090698 401.261200,257.066681 
	C399.619904,251.419205 395.603363,254.829132 392.508972,254.163620 
	C392.508972,264.561584 392.508972,274.458252 392.508972,284.496643 
	C395.463074,284.496643 398.144501,284.496643 401.060638,284.496643 
	C401.060638,279.148285 401.023773,274.173523 401.072021,269.199615 
	C401.112610,265.013428 402.927246,262.251099 407.354034,261.641998 
	C408.447449,261.491547 409.508270,261.104156 411.120667,260.686798 
	C409.280945,258.490631 413.608948,254.316605 407.269104,254.059402 
M549.009033,284.830048 
	C551.425293,284.830048 553.841614,284.830048 556.335083,284.830048 
	C556.335083,274.197144 556.335083,264.270386 556.335083,254.158188 
	C553.461548,254.158188 550.842224,254.158188 548.190491,254.158188 
	C548.190491,264.371033 548.190491,274.459198 549.009033,284.830048 
M554.523804,240.097626 
	C551.416077,239.039536 548.531433,239.546722 547.705322,242.888199 
	C547.299316,244.530502 548.343140,247.686676 549.620056,248.296875 
	C551.212097,249.057663 554.282532,248.584900 555.710205,247.416992 
	C558.182983,245.394196 557.454224,242.683350 554.523804,240.097626 
z"/>
<path fill="#52CDA5" opacity="1.000000" stroke="none" 
	d="
M198.348572,254.217987 
	C189.516083,260.597198 182.595001,268.137451 179.254791,278.294922 
	C175.882202,288.550873 179.982361,297.324066 190.320419,300.415039 
	C202.820343,304.152374 200.810684,306.004181 200.939941,315.980530 
	C200.998123,320.472137 201.034927,324.967529 200.916214,329.456818 
	C200.819199,333.125824 199.649918,335.902496 195.187225,336.052490 
	C190.588135,336.207062 188.896820,333.602936 188.680466,329.641968 
	C188.472046,325.825958 188.440750,321.982117 188.645615,318.167358 
	C188.813065,315.049286 187.679214,313.560242 184.705399,312.296692 
	C166.949417,304.752197 160.618011,288.726593 168.061493,270.942780 
	C171.723145,262.194427 177.203857,254.772079 184.337250,248.566757 
	C186.340256,246.824371 188.414780,245.131393 190.621170,243.663239 
	C193.957108,241.443451 197.645386,240.647614 200.479187,244.138672 
	C203.457870,247.808228 202.226883,251.265793 198.348572,254.217987 
z"/>
<path fill="#52CDA5" opacity="1.000000" stroke="none" 
	d="
M238.427567,285.879089 
	C237.739960,272.317963 229.985931,263.469604 220.396072,255.785202 
	C214.440582,251.013031 213.190002,248.165314 215.757202,244.479691 
	C218.281555,240.855576 222.665329,241.002869 228.363464,245.382736 
	C238.595108,253.247269 246.467392,262.894012 250.152267,275.536316 
	C254.705872,291.159027 248.494888,305.132629 233.448288,311.494476 
	C228.946884,313.397675 227.411087,315.743378 227.882721,320.325073 
	C228.221634,323.617371 228.103668,326.985291 227.882172,330.298920 
	C227.641434,333.900421 225.905807,336.097076 221.852295,336.054382 
	C217.835068,336.012024 216.025238,333.966522 215.976303,330.231873 
	C215.882538,323.077881 215.586609,315.893188 216.155258,308.783722 
	C216.330597,306.591583 218.646484,304.001251 220.684830,302.664856 
	C223.536362,300.795319 227.230927,300.256470 230.231659,298.559265 
	C234.893814,295.922302 238.257721,292.116119 238.427567,285.879089 
z"/>
<path fill="#434850" opacity="1.000000" stroke="none" 
	d="
M426.518250,283.426270 
	C419.729126,281.966003 415.924530,277.975311 414.860535,271.618286 
	C413.799011,265.276215 415.266266,259.511505 420.851013,255.798828 
	C426.405090,252.106583 432.134796,252.519592 435.939270,255.586563 
	C440.107269,254.717102 443.007141,254.112167 446.282440,253.428925 
	C446.282440,264.759125 446.672180,275.215790 446.154510,285.627350 
	C445.766632,293.428223 441.238495,297.865906 434.323761,298.951752 
	C424.590393,300.480164 418.356812,297.664703 414.633728,289.760315 
	C416.766663,288.753571 418.909760,287.742004 421.311432,286.608398 
	C424.015686,291.644592 428.212219,293.748627 433.364288,291.673218 
	C437.722748,289.917603 437.944153,285.723358 437.571655,281.645691 
	C433.854370,282.301392 430.381989,282.913940 426.518250,283.426270 
M425.980865,274.796082 
	C429.201874,277.082397 433.024536,277.474243 435.437500,274.617035 
	C437.255859,272.463837 438.345276,268.550598 437.750671,265.865570 
	C437.273529,263.710938 433.918121,261.042419 431.588806,260.773010 
	C429.261414,260.503876 425.901886,262.341064 424.284088,264.312744 
	C421.697998,267.464508 422.653595,271.187164 425.980865,274.796082 
z"/>
<path fill="#40454C" opacity="1.000000" stroke="none" 
	d="
M516.714111,267.473083 
	C515.924011,267.295502 514.822083,267.321320 514.673584,267.710754 
	C512.550537,273.277374 510.556091,278.893097 508.475922,284.648621 
	C505.917908,284.648621 503.450439,284.648621 500.401672,284.648621 
	C496.971863,274.768097 493.463623,264.661591 489.841583,254.227249 
	C492.939148,254.227249 495.697601,254.227249 498.766724,254.227249 
	C500.696045,260.190155 502.655273,266.245392 505.036407,273.604645 
	C507.737213,266.311035 509.943695,260.352325 512.124451,254.463196 
	C517.057800,252.866226 519.846497,254.231369 521.088074,259.514465 
	C522.122620,263.916443 524.171509,268.079987 526.234924,273.587006 
	C528.584106,266.326965 530.498535,260.410461 532.494690,254.241333 
	C535.204834,254.241333 537.983337,254.241333 541.433105,254.241333 
	C537.835815,264.553497 534.320068,274.631744 530.846191,284.590179 
	C522.920044,285.170868 522.917969,285.171600 520.467102,278.197266 
	C519.255127,274.748383 518.052551,271.296234 516.714111,267.473083 
z"/>
<path fill="#54CEA6" opacity="1.000000" stroke="none" 
	d="
M226.208160,213.102585 
	C228.435471,222.799103 225.664276,230.518661 218.657745,234.885376 
	C211.504868,239.343292 203.019547,239.045578 196.720169,234.115692 
	C190.182251,228.999130 187.587769,220.817780 190.072083,213.151825 
	C192.441315,205.840958 199.606140,200.367859 207.234100,200.042068 
	C215.930023,199.670654 222.651505,204.189438 226.208160,213.102585 
M213.723083,211.608322 
	C207.614182,207.048737 199.244110,211.455307 198.946899,218.302109 
	C198.751038,222.814499 200.931625,226.011398 204.886917,227.750488 
	C208.759827,229.453415 213.734467,227.830765 215.840118,224.244904 
	C218.369308,219.937729 218.111664,215.733047 213.723083,211.608322 
z"/>
<path fill="#454A51" opacity="1.000000" stroke="none" 
	d="
M603.410095,278.800354 
	C603.410217,265.356079 603.410217,252.384918 603.410217,239.095352 
	C606.247437,239.095352 608.850098,239.095352 612.084351,239.095352 
	C612.084351,244.446594 612.084351,249.995529 612.084351,255.900620 
	C615.258484,254.970154 617.715759,253.959198 620.269043,253.556015 
	C627.866821,252.356232 632.712280,256.207672 632.978455,263.812897 
	C633.216553,270.617920 633.028503,277.437866 633.028503,284.560944 
	C630.306335,284.560944 627.735229,284.560944 624.409729,284.560944 
	C624.409729,279.524200 624.436890,274.428925 624.402954,269.334015 
	C624.358826,262.698730 622.690308,260.195557 618.462219,260.297699 
	C614.382629,260.396179 612.160645,263.536957 612.124573,269.350616 
	C612.093689,274.332733 612.118164,279.315155 612.118164,284.583618 
	C609.277710,284.583618 606.697510,284.583618 603.409973,284.583618 
	C603.409973,282.811401 603.409973,281.042450 603.410095,278.800354 
z"/>
<path fill="#41464E" opacity="1.000000" stroke="none" 
	d="
M382.613708,277.869019 
	C378.971222,285.822601 366.009705,287.181274 359.190918,282.429047 
	C352.800964,277.975708 350.837524,267.080719 355.414032,260.067078 
	C359.878235,253.225525 370.967010,251.057205 378.132233,255.756683 
	C383.515320,259.287292 384.460754,264.662781 384.099518,270.958374 
	C376.607422,270.958374 369.364594,270.958374 362.121765,270.958374 
	C361.777344,271.393219 361.432922,271.828064 361.088501,272.262909 
	C362.811584,274.137360 364.237732,276.982758 366.337646,277.624939 
	C368.636566,278.327972 372.418610,277.894714 374.023438,276.357971 
	C377.083038,273.428192 379.865845,275.363800 382.773041,275.485718 
	C382.810425,275.487305 382.790558,276.852448 382.613708,277.869019 
M366.742493,265.281342 
	C369.487366,265.281342 372.232208,265.281342 375.209991,265.281342 
	C374.893768,260.905060 372.269562,259.508728 369.197784,259.531525 
	C365.832703,259.556427 362.747192,260.765900 362.195404,265.097260 
	C363.550629,265.165741 364.695435,265.223541 366.742493,265.281342 
z"/>
<path fill="#41464E" opacity="1.000000" stroke="none" 
	d="
M455.630585,262.821899 
	C459.739990,254.720337 466.944946,251.678482 475.851532,254.002594 
	C482.617889,255.768234 486.073975,261.452271 485.724579,270.881531 
	C478.413208,270.881531 471.047516,270.881531 463.612335,270.881531 
	C464.614685,277.680695 469.902557,280.109222 475.143127,277.166992 
	C477.830200,275.658417 481.070282,275.134796 484.786987,273.930634 
	C482.767151,284.655640 470.009064,288.684814 461.168396,282.723816 
	C453.955902,277.860687 453.744781,270.749359 455.630585,262.821899 
M470.437958,259.535889 
	C467.122101,259.849487 464.204224,260.636017 463.984314,264.973206 
	C468.367554,264.973206 472.580780,264.973206 476.794006,264.973206 
	C477.056030,264.466095 477.318054,263.958984 477.580078,263.451874 
	C475.447998,262.182678 473.315948,260.913452 470.437958,259.535889 
z"/>
<path fill="#40454D" opacity="1.000000" stroke="none" 
	d="
M311.916504,273.834442 
	C307.847321,283.244995 300.374512,287.034790 290.872314,284.840088 
	C282.097656,282.813446 277.493347,275.422455 279.034485,265.837646 
	C280.325836,257.806213 288.334473,252.376526 297.348450,253.421158 
	C308.274170,254.687347 312.851471,260.943024 311.916504,273.834442 
M295.506165,278.249237 
	C301.201721,277.241028 304.256439,273.637512 303.757538,268.515533 
	C303.285706,263.671509 299.789276,260.150146 295.436005,260.134644 
	C291.261902,260.119781 287.936066,263.450104 287.385529,268.195892 
	C286.773224,273.474854 289.289886,276.917603 295.506165,278.249237 
z"/>
<path fill="#43474F" opacity="1.000000" stroke="none" 
	d="
M564.981262,273.924530 
	C562.822083,263.293762 567.589844,255.640274 577.228394,253.723358 
	C586.460449,251.887283 593.643127,256.120300 595.517029,264.730469 
	C591.940735,264.783783 588.253540,266.911438 585.530884,262.162994 
	C584.778015,260.849976 581.339111,260.438934 579.245972,260.664612 
	C574.827026,261.141113 573.402466,264.707153 573.083801,268.558807 
	C572.761658,272.450378 573.913635,276.139587 577.776611,277.672272 
	C581.197144,279.029419 584.221680,278.115143 587.160400,275.146271 
	C588.825989,273.463593 592.438538,273.708160 595.644226,272.977631 
	C593.909180,280.923065 589.819580,284.499268 583.042725,285.101044 
	C573.909424,285.912109 568.291077,282.538971 564.981262,273.924530 
z"/>
<path fill="#41464E" opacity="1.000000" stroke="none" 
	d="
M649.586975,283.620544 
	C647.804504,280.442535 645.616821,277.595978 645.075256,274.464783 
	C644.348877,270.264404 644.895386,265.843903 644.895386,261.033813 
	C643.019653,260.876160 641.254944,260.727875 639.188110,260.554169 
	C639.188110,258.633362 639.188110,256.691040 639.188110,254.346817 
	C645.750916,254.453766 646.439026,249.920456 645.708069,244.315704 
	C648.436829,244.315704 650.809814,244.315704 653.692139,244.315704 
	C653.692139,247.406509 653.692139,250.480194 653.692139,253.912048 
	C655.951660,253.912048 657.715759,253.912048 659.748108,253.912048 
	C659.748108,256.196320 659.748108,258.117432 659.748108,260.418335 
	C658.048035,260.586700 656.282227,260.761597 653.945801,260.992981 
	C653.945801,265.654236 653.516968,270.459015 654.187439,275.105164 
	C654.410461,276.650482 657.453735,277.788818 659.823242,279.578033 
	C659.823242,280.474670 659.823242,282.409149 659.823242,285.139221 
	C656.330139,284.675964 653.122498,284.250580 649.586975,283.620544 
z"/>
<path fill="#40454C" opacity="1.000000" stroke="none" 
	d="
M347.522125,254.000854 
	C347.975525,255.105865 348.363861,256.343567 347.983765,257.263977 
	C344.629150,265.388123 341.054077,273.421661 337.736572,281.560425 
	C336.698120,284.108063 335.247162,284.952240 332.506775,284.962952 
	C329.747070,284.973724 328.395264,284.120636 327.363007,281.534546 
	C323.748810,272.479706 319.868469,263.531128 315.946564,254.202850 
	C319.140289,254.202850 321.901642,254.202850 324.991425,254.202850 
	C327.385315,260.659882 329.830688,267.255737 332.562653,274.624573 
	C334.551147,269.409363 336.756073,265.061188 337.824341,260.449738 
	C339.068024,255.081055 341.774719,252.943359 347.522125,254.000854 
z"/>
<path fill="#454A51" opacity="1.000000" stroke="none" 
	d="
M407.629395,253.999283 
	C413.608948,254.316605 409.280945,258.490631 411.120667,260.686798 
	C409.508270,261.104156 408.447449,261.491547 407.354034,261.641998 
	C402.927246,262.251099 401.112610,265.013428 401.072021,269.199615 
	C401.023773,274.173523 401.060638,279.148285 401.060638,284.496643 
	C398.144501,284.496643 395.463074,284.496643 392.508972,284.496643 
	C392.508972,274.458252 392.508972,264.561584 392.508972,254.163620 
	C395.603363,254.829132 399.619904,251.419205 401.261200,257.066681 
	C403.211060,256.090698 405.240082,255.075043 407.629395,253.999283 
z"/>
<path fill="#454A51" opacity="1.000000" stroke="none" 
	d="
M548.599731,284.688690 
	C548.190491,274.459198 548.190491,264.371033 548.190491,254.158188 
	C550.842224,254.158188 553.461548,254.158188 556.335083,254.158188 
	C556.335083,264.270386 556.335083,274.197144 556.335083,284.830048 
	C553.841614,284.830048 551.425293,284.830048 548.599731,284.688690 
z"/>
<path fill="#454A51" opacity="1.000000" stroke="none" 
	d="
M554.810486,240.335999 
	C557.454224,242.683350 558.182983,245.394196 555.710205,247.416992 
	C554.282532,248.584900 551.212097,249.057663 549.620056,248.296875 
	C548.343140,247.686676 547.299316,244.530502 547.705322,242.888199 
	C548.531433,239.546722 551.416077,239.039536 554.810486,240.335999 
z"/>
<path fill="#FAFAFB" opacity="1.000000" stroke="none" 
	d="
M425.668701,274.533447 
	C422.653595,271.187164 421.697998,267.464508 424.284088,264.312744 
	C425.901886,262.341064 429.261414,260.503876 431.588806,260.773010 
	C433.918121,261.042419 437.273529,263.710938 437.750671,265.865570 
	C438.345276,268.550598 437.255859,272.463837 435.437500,274.617035 
	C433.024536,277.474243 429.201874,277.082397 425.668701,274.533447 
z"/>
<path fill="#FFFFFF" opacity="1.000000" stroke="none" 
	d="
M214.056580,211.831970 
	C218.111664,215.733047 218.369308,219.937729 215.840118,224.244904 
	C213.734467,227.830765 208.759827,229.453415 204.886917,227.750488 
	C200.931625,226.011398 198.751038,222.814499 198.946899,218.302109 
	C199.244110,211.455307 207.614182,207.048737 214.056580,211.831970 
z"/>
<path fill="#FAFAFB" opacity="1.000000" stroke="none" 
	d="
M366.291351,265.281372 
	C364.695435,265.223541 363.550629,265.165741 362.195404,265.097260 
	C362.747192,260.765900 365.832703,259.556427 369.197784,259.531525 
	C372.269562,259.508728 374.893768,260.905060 375.209991,265.281342 
	C372.232208,265.281342 369.487366,265.281342 366.291351,265.281372 
z"/>
<path fill="#FAFAFB" opacity="1.000000" stroke="none" 
	d="
M470.810913,259.590088 
	C473.315948,260.913452 475.447998,262.182678 477.580078,263.451874 
	C477.318054,263.958984 477.056030,264.466095 476.794006,264.973206 
	C472.580780,264.973206 468.367554,264.973206 463.984314,264.973206 
	C464.204224,260.636017 467.122101,259.849487 470.810913,259.590088 
z"/>
<path fill="#FAFAFB" opacity="1.000000" stroke="none" 
	d="
M295.093750,278.212738 
	C289.289886,276.917603 286.773224,273.474854 287.385529,268.195892 
	C287.936066,263.450104 291.261902,260.119781 295.436005,260.134644 
	C299.789276,260.150146 303.285706,263.671509 303.757538,268.515533 
	C304.256439,273.637512 301.201721,277.241028 295.093750,278.212738 
z"/>
</svg>