<svg version="1.1" id="Layer_1" xmlns="http://www.w3.org/2000/svg" xmlns:xlink="http://www.w3.org/1999/xlink" x="0px" y="0px"
	 width="100%" viewBox="0 0 817 547" enable-background="new 0 0 817 547" xml:space="preserve">
<path fill="#FFFFFF" opacity="1.000000" stroke="none" 
	d="
M3.000000,1.000000 
	C274.624817,1.000000 546.249634,1.000000 817.937256,1.000000 
	C817.937256,183.263382 817.937256,365.526794 817.937256,547.895142 
	C545.778564,547.895142 273.557098,547.895142 1.000000,547.895142 
	C1.000000,366.639954 1.000000,185.279678 1.321679,3.419171 
	C2.095572,2.279289 2.547786,1.639644 3.000000,1.000000 
M452.073456,278.596405 
	C445.988312,284.075623 438.787415,287.270081 430.897949,289.199249 
	C423.270111,291.064423 420.025208,294.639923 419.968964,301.360901 
	C419.863037,314.019684 419.852386,326.680939 419.984680,339.339294 
	C420.053986,345.967957 424.084381,350.220001 430.230133,350.685120 
	C435.582092,351.090149 440.503418,346.888702 441.084290,340.576172 
	C441.646851,334.462921 442.028625,328.215363 441.401886,322.139008 
	C440.545776,313.838623 442.181213,307.880981 451.485840,306.449402 
	C451.803070,306.400635 452.098267,306.196014 452.398926,306.053833 
	C475.803864,294.983826 487.223938,273.770416 482.837402,248.617752 
	C480.113770,233.000275 472.946960,219.153610 462.406128,207.580048 
	C454.523132,198.924728 445.225098,191.501846 436.170197,183.997040 
	C432.378845,180.854691 427.455200,180.702942 423.045105,183.496109 
	C418.613037,186.303192 416.586212,190.869354 418.222656,195.539429 
	C419.421051,198.959305 422.442993,202.204254 425.456635,204.445435 
	C440.340881,215.514633 452.459381,228.704163 458.370178,246.608109 
	C462.118988,257.963318 461.912811,268.956207 452.073456,278.596405 
M367.322998,190.829361 
	C353.304626,202.256302 342.005249,215.845581 334.962982,232.615829 
	C329.721039,245.098953 327.020874,258.020233 330.620728,271.533386 
	C335.754730,290.805267 349.312836,301.959869 367.122467,308.756653 
	C370.253021,309.951385 371.529510,311.297455 371.406677,314.756134 
	C371.129089,322.571594 371.161316,330.408112 371.370880,338.227936 
	C371.576630,345.906616 376.151215,350.735748 382.711578,350.709290 
	C388.812012,350.684692 393.014465,345.542755 393.055511,337.896667 
	C393.105560,328.573090 393.036621,319.248871 393.075317,309.925171 
	C393.136932,295.074982 394.501190,292.768616 376.956146,287.657318 
	C366.356567,284.569458 356.958618,278.739258 353.625244,267.129242 
	C350.443146,256.046173 353.900604,245.812515 359.046417,236.024353 
	C366.434052,221.971848 377.676392,211.533112 390.327484,202.331207 
	C395.637756,198.468735 396.713440,192.030899 393.439056,186.971771 
	C390.189178,181.950592 383.638123,180.126633 378.044556,183.212051 
	C374.435760,185.202652 371.256683,187.972336 367.322998,190.829361 
M438.682648,131.040634 
	C438.526276,130.567291 438.384216,130.088669 438.211487,129.621384 
	C433.187195,116.030258 420.859619,107.225006 406.614838,107.049133 
	C392.597229,106.876060 379.430206,115.825172 374.423065,128.928558 
	C369.526398,141.742859 373.281006,156.794952 383.729736,166.238693 
	C395.000305,176.425217 410.880585,177.737762 424.403320,169.600464 
	C436.825043,162.125687 442.599457,147.065414 438.682648,131.040634 
M374.614929,416.745270 
	C373.311432,425.341980 368.872925,428.939636 362.806488,425.974731 
	C360.699066,424.944733 359.125275,422.822784 357.218903,421.120239 
	C355.113464,422.121704 352.957794,423.147064 350.782410,424.181824 
	C354.999268,431.772827 361.105347,434.651978 369.883698,433.540405 
	C376.812439,432.663055 382.167664,428.849335 382.602081,422.226074 
	C383.346924,410.870087 382.807861,399.429840 382.807861,387.200378 
	C379.677582,387.927856 376.867828,388.580841 374.058075,389.233856 
	C373.917175,390.451080 373.492615,390.213409 373.080170,389.956268 
	C366.375061,385.775482 359.413574,386.503174 354.640167,391.886475 
	C349.921936,397.207611 349.617004,406.318604 353.958374,412.256226 
	C358.145599,417.982971 365.096649,419.309540 372.190155,415.836884 
	C372.818817,415.529175 373.753418,415.846436 374.614929,416.745270 
M451.982880,387.798584 
	C450.895599,388.995850 449.386047,390.016418 448.797791,391.422455 
	C446.787689,396.226898 445.101532,401.166870 443.228333,406.226440 
	C442.461395,405.653961 442.072510,405.519196 441.994263,405.281982 
	C440.751587,401.516388 439.516357,397.747681 438.343750,393.959778 
	C436.185791,386.988617 435.183746,386.467468 427.556610,388.696136 
	C431.055603,398.828369 434.549988,408.947296 437.764923,418.257019 
	C444.713837,420.855316 447.297699,417.709625 448.756683,412.269806 
	C449.893646,408.030457 451.603333,403.944702 453.154419,399.516846 
	C453.768250,400.215820 454.082367,400.427551 454.187836,400.715637 
	C455.610321,404.602875 457.007233,408.499512 458.403717,412.396271 
	C461.057434,419.801361 461.055664,419.802002 469.035248,418.451721 
	C472.504120,408.445557 475.999146,398.363953 479.598206,387.982300 
	C476.045166,387.982300 473.410889,387.982300 470.637726,387.982300 
	C468.619476,394.159241 466.640015,400.217499 464.181244,407.742798 
	C461.890015,401.530701 459.875427,396.704742 458.360565,391.726715 
	C457.427338,388.660065 455.922821,387.234161 451.982880,387.798584 
M551.353394,384.358795 
	C551.353394,380.425262 551.353394,376.491699 551.353394,372.603333 
	C548.136414,372.603333 545.566711,372.603333 542.847778,372.603333 
	C542.847778,388.179413 542.847778,403.425842 542.847778,418.842987 
	C545.673218,418.842987 548.297485,418.842987 551.497375,418.842987 
	C551.497375,412.742310 551.348999,406.782806 551.546875,400.834869 
	C551.691162,396.495331 554.228149,394.001129 558.611572,394.238922 
	C562.869629,394.469879 563.916748,397.590790 563.910522,401.289856 
	C563.900818,407.063477 563.907959,412.837128 563.907959,418.644775 
	C567.072205,418.644775 569.761292,418.644775 572.726074,418.644775 
	C572.726074,412.647797 572.731262,407.015930 572.721680,401.384094 
	C572.719727,400.221619 572.734131,399.052185 572.620483,397.897858 
	C571.776794,389.334625 566.004578,385.407898 557.636658,387.779968 
	C555.656250,388.341339 553.775696,389.255005 551.353088,390.200165 
	C551.353088,388.253021 551.353088,386.780670 551.353394,384.358795 
M631.500000,544.997559 
	C690.590515,544.997559 749.681030,544.997559 808.771545,544.997559 
	C808.770630,544.777466 808.769775,544.557312 808.768860,544.337219 
	C540.585876,544.337219 272.402863,544.337219 4.219885,544.337219 
	C4.219931,544.557312 4.219977,544.777466 4.220024,544.997559 
	C212.980011,544.997559 421.740021,544.997559 631.500000,544.997559 
M417.264862,416.966095 
	C419.099335,414.797180 420.933807,412.628265 423.061493,410.112671 
	C416.598877,408.449310 416.790833,408.834137 412.201904,411.123169 
	C409.989075,412.226929 406.600494,412.344757 404.296051,411.464478 
	C402.417633,410.746979 401.359772,407.881165 399.174957,404.940979 
	C408.246124,404.940979 415.519806,404.940979 422.753479,404.940979 
	C423.947052,394.632996 419.080841,388.013428 409.913849,387.138184 
	C399.705017,386.163422 392.439148,391.914185 391.582428,401.646973 
	C390.344421,415.711792 402.605530,423.412811 417.264862,416.966095 
M299.963623,410.851654 
	C298.894653,409.143677 297.825653,407.435669 296.250793,404.919434 
	C304.898621,404.919434 312.315552,404.919434 319.681458,404.919434 
	C320.822357,394.967316 316.404449,388.549408 307.777374,387.201233 
	C298.105072,385.689697 290.225494,391.039124 288.637360,400.195374 
	C286.983643,409.729279 292.128326,417.609833 301.007355,419.143677 
	C310.254303,420.741089 317.313934,416.994507 319.023499,408.888123 
	C316.181122,409.171783 312.785675,408.499237 311.071960,409.893616 
	C307.580688,412.734222 304.435089,413.187439 299.963623,410.851654 
M213.945847,409.237274 
	C218.287262,418.356354 227.107086,421.760132 237.226898,418.221985 
	C244.722092,415.601440 248.682114,407.775146 246.829849,399.243256 
	C244.911148,390.405396 235.976898,385.507019 225.762848,387.692810 
	C215.797363,389.825470 211.348801,397.520844 213.945847,409.237274 
M526.624268,398.826874 
	C529.180542,398.826874 531.736755,398.826874 534.345520,398.826874 
	C533.139465,391.066467 526.590088,386.475555 518.282043,387.170288 
	C508.649963,387.975739 502.814667,394.328674 502.913086,403.902527 
	C503.004913,412.836548 509.184845,418.849152 518.893127,419.449951 
	C527.107117,419.958252 533.097412,415.574738 534.366150,406.929321 
	C531.205505,407.788361 527.837463,407.749420 525.985657,409.405731 
	C522.132751,412.851898 517.495911,413.621216 514.169250,410.186890 
	C510.881500,406.792786 511.001160,399.149353 514.390259,396.070038 
	C518.012573,392.778748 522.807739,393.660309 526.624268,398.826874 
M582.012878,394.599335 
	C582.882141,395.837067 584.377319,397.013885 584.504700,398.323792 
	C584.906433,402.453949 584.646973,406.643799 584.920959,410.792206 
	C585.242371,415.657990 588.104065,418.330353 592.897278,418.773315 
	C595.156860,418.982117 597.451721,418.809113 599.797729,418.809113 
	C599.797729,416.593170 599.797729,414.666809 599.797729,412.740448 
	C597.172424,411.896759 594.244202,410.529633 593.959045,408.741058 
	C593.243103,404.251343 593.722412,399.571075 593.722412,394.877533 
	C596.021179,394.665588 597.809875,394.500671 599.719666,394.324615 
	C599.719666,392.086792 599.719666,390.038605 599.719666,388.008759 
	C597.631409,387.803711 595.848938,387.628693 593.833557,387.430786 
	C593.665039,384.152252 593.506592,381.069305 593.348328,377.989563 
	C590.592712,377.989563 588.205383,377.989563 585.855591,377.989563 
	C585.262024,386.369049 585.262024,386.369049 578.340759,388.620667 
	C579.292419,390.614349 576.320984,394.200134 582.012878,394.599335 
M270.817627,418.902008 
	C275.470673,408.789215 280.123749,398.676422 285.030823,388.011566 
	C281.254425,388.011566 278.494141,388.011566 275.529419,388.011566 
	C273.096710,394.379120 270.661987,400.751892 268.163177,407.292389 
	C267.337921,406.680908 266.941711,406.544006 266.844788,406.291992 
	C265.361267,402.435638 263.934998,398.557312 262.459442,394.697815 
	C259.574127,387.150970 259.564819,387.154510 250.945801,388.288727 
	C254.495483,396.690643 258.305542,404.909668 261.411163,413.386749 
	C263.038025,417.827332 265.296173,419.926819 270.817627,418.902008 
M346.959808,390.702240 
	C346.808197,389.645966 346.656586,388.589661 346.407043,386.851013 
	C343.090851,388.323639 340.275513,389.573853 337.418884,390.842407 
	C336.008881,385.239990 331.772095,388.579895 328.486389,387.989594 
	C328.486389,398.401550 328.486389,408.461273 328.486389,418.726440 
	C331.422516,418.726440 334.121765,418.726440 337.108887,418.726440 
	C337.108887,413.638062 337.073364,408.847260 337.119019,404.057190 
	C337.163574,399.380524 338.914337,395.825714 344.066193,395.451996 
	C346.981140,395.240540 347.144135,393.668243 346.959808,390.702240 
M486.756897,418.855011 
	C489.357391,418.855011 491.957886,418.855011 494.578094,418.855011 
	C494.578094,408.333923 494.578094,398.167877 494.578094,388.094116 
	C491.617157,388.094116 489.026215,388.094116 486.146851,388.094116 
	C486.146851,398.290161 486.146851,408.212708 486.756897,418.855011 
M491.993805,373.290375 
	C489.918243,374.456512 487.328094,375.228851 485.998657,376.965942 
	C485.394196,377.755768 486.942871,381.680908 488.121368,382.009705 
	C490.034302,382.543304 493.223328,382.000732 494.478302,380.632538 
	C496.762207,378.142639 495.570435,375.388977 491.993805,373.290375 
M812.190369,543.247498 
	C812.024963,543.366516 811.859619,543.485535 811.694275,543.604614 
	C811.925537,543.579895 812.156860,543.555115 812.190369,543.247498 
z"/>
<path fill="#E4E4E4" opacity="1.000000" stroke="none" 
	d="
M2.500000,1.000000 
	C2.547786,1.639644 2.095572,2.279289 1.321679,2.959466 
	C1.333333,2.333333 1.666667,1.666667 2.500000,1.000000 
z"/>
<path fill="#50CDA4" opacity="1.000000" stroke="none" 
	d="
M452.328979,278.340515 
	C461.912811,268.956207 462.118988,257.963318 458.370178,246.608109 
	C452.459381,228.704163 440.340881,215.514633 425.456635,204.445435 
	C422.442993,202.204254 419.421051,198.959305 418.222656,195.539429 
	C416.586212,190.869354 418.613037,186.303192 423.045105,183.496109 
	C427.455200,180.702942 432.378845,180.854691 436.170197,183.997040 
	C445.225098,191.501846 454.523132,198.924728 462.406128,207.580048 
	C472.946960,219.153610 480.113770,233.000275 482.837402,248.617752 
	C487.223938,273.770416 475.803864,294.983826 452.398926,306.053833 
	C452.098267,306.196014 451.803070,306.400635 451.485840,306.449402 
	C442.181213,307.880981 440.545776,313.838623 441.401886,322.139008 
	C442.028625,328.215363 441.646851,334.462921 441.084290,340.576172 
	C440.503418,346.888702 435.582092,351.090149 430.230133,350.685120 
	C424.084381,350.220001 420.053986,345.967957 419.984680,339.339294 
	C419.852386,326.680939 419.863037,314.019684 419.968964,301.360901 
	C420.025208,294.639923 423.270111,291.064423 430.897949,289.199249 
	C438.787415,287.270081 445.988312,284.075623 452.328979,278.340515 
z"/>
<path fill="#51CDA4" opacity="1.000000" stroke="none" 
	d="
M367.604004,190.611115 
	C371.256683,187.972336 374.435760,185.202652 378.044556,183.212051 
	C383.638123,180.126633 390.189178,181.950592 393.439056,186.971771 
	C396.713440,192.030899 395.637756,198.468735 390.327484,202.331207 
	C377.676392,211.533112 366.434052,221.971848 359.046417,236.024353 
	C353.900604,245.812515 350.443146,256.046173 353.625244,267.129242 
	C356.958618,278.739258 366.356567,284.569458 376.956146,287.657318 
	C394.501190,292.768616 393.136932,295.074982 393.075317,309.925171 
	C393.036621,319.248871 393.105560,328.573090 393.055511,337.896667 
	C393.014465,345.542755 388.812012,350.684692 382.711578,350.709290 
	C376.151215,350.735748 371.576630,345.906616 371.370880,338.227936 
	C371.161316,330.408112 371.129089,322.571594 371.406677,314.756134 
	C371.529510,311.297455 370.253021,309.951385 367.122467,308.756653 
	C349.312836,301.959869 335.754730,290.805267 330.620728,271.533386 
	C327.020874,258.020233 329.721039,245.098953 334.962982,232.615829 
	C342.005249,215.845581 353.304626,202.256302 367.604004,190.611115 
z"/>
<path fill="#51CDA5" opacity="1.000000" stroke="none" 
	d="
M438.782349,131.439514 
	C442.599457,147.065414 436.825043,162.125687 424.403320,169.600464 
	C410.880585,177.737762 395.000305,176.425217 383.729736,166.238693 
	C373.281006,156.794952 369.526398,141.742859 374.423065,128.928558 
	C379.430206,115.825172 392.597229,106.876060 406.614838,107.049133 
	C420.859619,107.225006 433.187195,116.030258 438.211487,129.621384 
	C438.384216,130.088669 438.526276,130.567291 438.782349,131.439514 
M398.737183,125.909286 
	C389.164734,131.830124 386.537384,141.867554 392.295990,150.517029 
	C397.688568,158.616745 408.826294,160.251083 416.812286,154.114578 
	C423.147705,149.246399 424.974243,140.354385 421.130035,133.094620 
	C416.944458,125.190285 409.054840,122.461975 398.737183,125.909286 
z"/>
<path fill="#40444C" opacity="1.000000" stroke="none" 
	d="
M374.580444,416.309326 
	C373.753418,415.846436 372.818817,415.529175 372.190155,415.836884 
	C365.096649,419.309540 358.145599,417.982971 353.958374,412.256226 
	C349.617004,406.318604 349.921936,397.207611 354.640167,391.886475 
	C359.413574,386.503174 366.375061,385.775482 373.080170,389.956268 
	C373.492615,390.213409 373.917175,390.451080 374.058075,389.233856 
	C376.867828,388.580841 379.677582,387.927856 382.807861,387.200378 
	C382.807861,399.429840 383.346924,410.870087 382.602081,422.226074 
	C382.167664,428.849335 376.812439,432.663055 369.883698,433.540405 
	C361.105347,434.651978 354.999268,431.772827 350.782410,424.181824 
	C352.957794,423.147064 355.113464,422.121704 357.218903,421.120239 
	C359.125275,422.822784 360.699066,424.944733 362.806488,425.974731 
	C368.872925,428.939636 373.311432,425.341980 374.580444,416.309326 
M374.694611,405.678955 
	C375.619781,402.107727 375.517151,398.736908 372.480896,396.123932 
	C368.992737,393.122070 363.799774,393.725861 361.044891,397.364197 
	C358.412964,400.840088 359.117706,406.348541 362.526703,408.945892 
	C366.594208,412.044983 370.796509,411.119263 374.694611,405.678955 
z"/>
<path fill="#3F444B" opacity="1.000000" stroke="none" 
	d="
M452.358032,387.798157 
	C455.922821,387.234161 457.427338,388.660065 458.360565,391.726715 
	C459.875427,396.704742 461.890015,401.530701 464.181244,407.742798 
	C466.640015,400.217499 468.619476,394.159241 470.637726,387.982300 
	C473.410889,387.982300 476.045166,387.982300 479.598206,387.982300 
	C475.999146,398.363953 472.504120,408.445557 469.035248,418.451721 
	C461.055664,419.802002 461.057434,419.801361 458.403717,412.396271 
	C457.007233,408.499512 455.610321,404.602875 454.187836,400.715637 
	C454.082367,400.427551 453.768250,400.215820 453.154419,399.516846 
	C451.603333,403.944702 449.893646,408.030457 448.756683,412.269806 
	C447.297699,417.709625 444.713837,420.855316 437.764923,418.257019 
	C434.549988,408.947296 431.055603,398.828369 427.556610,388.696136 
	C435.183746,386.467468 436.185791,386.988617 438.343750,393.959778 
	C439.516357,397.747681 440.751587,401.516388 441.994263,405.281982 
	C442.072510,405.519196 442.461395,405.653961 443.228333,406.226440 
	C445.101532,401.166870 446.787689,396.226898 448.797791,391.422455 
	C449.386047,390.016418 450.895599,388.995850 452.358032,387.798157 
z"/>
<path fill="#3F444B" opacity="1.000000" stroke="none" 
	d="
M551.353271,384.833557 
	C551.353088,386.780670 551.353088,388.253021 551.353088,390.200165 
	C553.775696,389.255005 555.656250,388.341339 557.636658,387.779968 
	C566.004578,385.407898 571.776794,389.334625 572.620483,397.897858 
	C572.734131,399.052185 572.719727,400.221619 572.721680,401.384094 
	C572.731262,407.015930 572.726074,412.647797 572.726074,418.644775 
	C569.761292,418.644775 567.072205,418.644775 563.907959,418.644775 
	C563.907959,412.837128 563.900818,407.063477 563.910522,401.289856 
	C563.916748,397.590790 562.869629,394.469879 558.611572,394.238922 
	C554.228149,394.001129 551.691162,396.495331 551.546875,400.834869 
	C551.348999,406.782806 551.497375,412.742310 551.497375,418.842987 
	C548.297485,418.842987 545.673218,418.842987 542.847778,418.842987 
	C542.847778,403.425842 542.847778,388.179413 542.847778,372.603333 
	C545.566711,372.603333 548.136414,372.603333 551.353394,372.603333 
	C551.353394,376.491699 551.353394,380.425262 551.353271,384.833557 
z"/>
<path fill="#E1E1E1" opacity="1.000000" stroke="none" 
	d="
M631.000000,544.997559 
	C421.740021,544.997559 212.980011,544.997559 4.220024,544.997559 
	C4.219977,544.777466 4.219931,544.557312 4.219885,544.337219 
	C272.402863,544.337219 540.585876,544.337219 808.768860,544.337219 
	C808.769775,544.557312 808.770630,544.777466 808.771545,544.997559 
	C749.681030,544.997559 690.590515,544.997559 631.000000,544.997559 
z"/>
<path fill="#41464E" opacity="1.000000" stroke="none" 
	d="
M416.955994,417.177917 
	C402.605530,423.412811 390.344421,415.711792 391.582428,401.646973 
	C392.439148,391.914185 399.705017,386.163422 409.913849,387.138184 
	C419.080841,388.013428 423.947052,394.632996 422.753479,404.940979 
	C415.519806,404.940979 408.246124,404.940979 399.174957,404.940979 
	C401.359772,407.881165 402.417633,410.746979 404.296051,411.464478 
	C406.600494,412.344757 409.989075,412.226929 412.201904,411.123169 
	C416.790833,408.834137 416.598877,408.449310 423.061493,410.112671 
	C420.933807,412.628265 419.099335,414.797180 416.955994,417.177917 
M404.750366,399.166595 
	C407.828308,399.166595 410.906250,399.166595 413.984192,399.166595 
	C414.254272,398.601959 414.524323,398.037292 414.794403,397.472656 
	C412.891388,396.159424 411.076263,393.966980 409.062103,393.765625 
	C406.777100,393.537231 403.827637,394.513214 402.046265,396.011200 
	C399.595978,398.071686 401.047485,399.323547 404.750366,399.166595 
z"/>
<path fill="#41454D" opacity="1.000000" stroke="none" 
	d="
M300.292725,411.099030 
	C304.435089,413.187439 307.580688,412.734222 311.071960,409.893616 
	C312.785675,408.499237 316.181122,409.171783 319.023499,408.888123 
	C317.313934,416.994507 310.254303,420.741089 301.007355,419.143677 
	C292.128326,417.609833 286.983643,409.729279 288.637360,400.195374 
	C290.225494,391.039124 298.105072,385.689697 307.777374,387.201233 
	C316.404449,388.549408 320.822357,394.967316 319.681458,404.919434 
	C312.315552,404.919434 304.898621,404.919434 296.250793,404.919434 
	C297.825653,407.435669 298.894653,409.143677 300.292725,411.099030 
M299.929321,399.162781 
	C303.587524,399.162781 307.245728,399.162781 311.133423,399.162781 
	C309.004608,392.957031 302.604736,391.448059 299.118378,395.741333 
	C298.556946,396.432770 299.045715,397.976990 299.929321,399.162781 
z"/>
<path fill="#41464E" opacity="1.000000" stroke="none" 
	d="
M213.856857,408.839905 
	C211.348801,397.520844 215.797363,389.825470 225.762848,387.692810 
	C235.976898,385.507019 244.911148,390.405396 246.829849,399.243256 
	C248.682114,407.775146 244.722092,415.601440 237.226898,418.221985 
	C227.107086,421.760132 218.287262,418.356354 213.856857,408.839905 
M229.597107,412.406311 
	C235.945892,411.492889 238.585220,408.567505 238.297394,402.763031 
	C238.053421,397.842438 235.048798,394.519073 230.485718,394.122620 
	C226.579697,393.783264 222.867371,396.803680 222.062576,400.975800 
	C220.980392,406.585938 223.358154,410.603821 229.597107,412.406311 
z"/>
<path fill="#42474E" opacity="1.000000" stroke="none" 
	d="
M526.403259,398.532410 
	C522.807739,393.660309 518.012573,392.778748 514.390259,396.070038 
	C511.001160,399.149353 510.881500,406.792786 514.169250,410.186890 
	C517.495911,413.621216 522.132751,412.851898 525.985657,409.405731 
	C527.837463,407.749420 531.205505,407.788361 534.366150,406.929321 
	C533.097412,415.574738 527.107117,419.958252 518.893127,419.449951 
	C509.184845,418.849152 503.004913,412.836548 502.913086,403.902527 
	C502.814667,394.328674 508.649963,387.975739 518.282043,387.170288 
	C526.590088,386.475555 533.139465,391.066467 534.345520,398.826874 
	C531.736755,398.826874 529.180542,398.826874 526.403259,398.532410 
z"/>
<path fill="#444950" opacity="1.000000" stroke="none" 
	d="
M581.565186,394.592224 
	C576.320984,394.200134 579.292419,390.614349 578.340759,388.620667 
	C585.262024,386.369049 585.262024,386.369049 585.855591,377.989563 
	C588.205383,377.989563 590.592712,377.989563 593.348328,377.989563 
	C593.506592,381.069305 593.665039,384.152252 593.833557,387.430786 
	C595.848938,387.628693 597.631409,387.803711 599.719666,388.008759 
	C599.719666,390.038605 599.719666,392.086792 599.719666,394.324615 
	C597.809875,394.500671 596.021179,394.665588 593.722412,394.877533 
	C593.722412,399.571075 593.243103,404.251343 593.959045,408.741058 
	C594.244202,410.529633 597.172424,411.896759 599.797729,412.740448 
	C599.797729,414.666809 599.797729,416.593170 599.797729,418.809113 
	C597.451721,418.809113 595.156860,418.982117 592.897278,418.773315 
	C588.104065,418.330353 585.242371,415.657990 584.920959,410.792206 
	C584.646973,406.643799 584.906433,402.453949 584.504700,398.323792 
	C584.377319,397.013885 582.882141,395.837067 581.565186,394.592224 
z"/>
<path fill="#3F444B" opacity="1.000000" stroke="none" 
	d="
M270.407532,418.951782 
	C265.296173,419.926819 263.038025,417.827332 261.411163,413.386749 
	C258.305542,404.909668 254.495483,396.690643 250.945801,388.288727 
	C259.564819,387.154510 259.574127,387.150970 262.459442,394.697815 
	C263.934998,398.557312 265.361267,402.435638 266.844788,406.291992 
	C266.941711,406.544006 267.337921,406.680908 268.163177,407.292389 
	C270.661987,400.751892 273.096710,394.379120 275.529419,388.011566 
	C278.494141,388.011566 281.254425,388.011566 285.030823,388.011566 
	C280.123749,398.676422 275.470673,408.789215 270.407532,418.951782 
z"/>
<path fill="#444950" opacity="1.000000" stroke="none" 
	d="
M346.959839,391.109802 
	C347.144135,393.668243 346.981140,395.240540 344.066193,395.451996 
	C338.914337,395.825714 337.163574,399.380524 337.119019,404.057190 
	C337.073364,408.847260 337.108887,413.638062 337.108887,418.726440 
	C334.121765,418.726440 331.422516,418.726440 328.486389,418.726440 
	C328.486389,408.461273 328.486389,398.401550 328.486389,387.989594 
	C331.772095,388.579895 336.008881,385.239990 337.418884,390.842407 
	C340.275513,389.573853 343.090851,388.323639 346.407043,386.851013 
	C346.656586,388.589661 346.808197,389.645966 346.959839,391.109802 
z"/>
<path fill="#3F444B" opacity="1.000000" stroke="none" 
	d="
M486.451874,418.495148 
	C486.146851,408.212708 486.146851,398.290161 486.146851,388.094116 
	C489.026215,388.094116 491.617157,388.094116 494.578094,388.094116 
	C494.578094,398.167877 494.578094,408.333923 494.578094,418.855011 
	C491.957886,418.855011 489.357391,418.855011 486.451874,418.495148 
z"/>
<path fill="#444950" opacity="1.000000" stroke="none" 
	d="
M492.333557,373.452087 
	C495.570435,375.388977 496.762207,378.142639 494.478302,380.632538 
	C493.223328,382.000732 490.034302,382.543304 488.121368,382.009705 
	C486.942871,381.680908 485.394196,377.755768 485.998657,376.965942 
	C487.328094,375.228851 489.918243,374.456512 492.333557,373.452087 
z"/>
<path fill="#E1E1E1" opacity="1.000000" stroke="none" 
	d="
M812.289246,543.388916 
	C812.156860,543.555115 811.925537,543.579895 811.694275,543.604614 
	C811.859619,543.485535 812.024963,543.366516 812.289246,543.388916 
z"/>
<path fill="#FDFEFE" opacity="1.000000" stroke="none" 
	d="
M399.090454,125.752304 
	C409.054840,122.461975 416.944458,125.190285 421.130035,133.094620 
	C424.974243,140.354385 423.147705,149.246399 416.812286,154.114578 
	C408.826294,160.251083 397.688568,158.616745 392.295990,150.517029 
	C386.537384,141.867554 389.164734,131.830124 399.090454,125.752304 
z"/>
<path fill="#F7F7F8" opacity="1.000000" stroke="none" 
	d="
M374.483398,406.018738 
	C370.796509,411.119263 366.594208,412.044983 362.526703,408.945892 
	C359.117706,406.348541 358.412964,400.840088 361.044891,397.364197 
	C363.799774,393.725861 368.992737,393.122070 372.480896,396.123932 
	C375.517151,398.736908 375.619781,402.107727 374.483398,406.018738 
z"/>
<path fill="#F7F7F8" opacity="1.000000" stroke="none" 
	d="
M404.297821,399.166321 
	C401.047485,399.323547 399.595978,398.071686 402.046265,396.011200 
	C403.827637,394.513214 406.777100,393.537231 409.062103,393.765625 
	C411.076263,393.966980 412.891388,396.159424 414.794403,397.472656 
	C414.524323,398.037292 414.254272,398.601959 413.984192,399.166595 
	C410.906250,399.166595 407.828308,399.166595 404.297821,399.166321 
z"/>
<path fill="#F7F7F8" opacity="1.000000" stroke="none" 
	d="
M299.489166,399.144897 
	C299.045715,397.976990 298.556946,396.432770 299.118378,395.741333 
	C302.604736,391.448059 309.004608,392.957031 311.133423,399.162781 
	C307.245728,399.162781 303.587524,399.162781 299.489166,399.144897 
z"/>
<path fill="#FDFEFE" opacity="1.000000" stroke="none" 
	d="
M229.178879,412.350159 
	C223.358154,410.603821 220.980392,406.585938 222.062576,400.975800 
	C222.867371,396.803680 226.579697,393.783264 230.485718,394.122620 
	C235.048798,394.519073 238.053421,397.842438 238.297394,402.763031 
	C238.585220,408.567505 235.945892,411.492889 229.178879,412.350159 
z"/>
</svg>